<?xml version="1.0" encoding="UTF-8"?>
<svg version="1.1" xmlns="http://www.w3.org/2000/svg" width="500" height="500">
<path d="M0 0 C3.75376152 1.25125384 4.24073289 2.5652404 6 6 C6 6.66 6 7.32 6 8 C6.66 8 7.32 8 8 8 C9.375 9.9140625 9.375 9.9140625 11 12.625 C13.72648982 17.03450823 16.58336401 21.3036745 19.625 25.5 C23.73695519 31.18928614 27.73336077 36.94995368 31.6875 42.75 C32.79686441 44.37630931 33.90623907 46.00261162 35.015625 47.62890625 C35.53189453 48.38574707 36.04816406 49.14258789 36.58007812 49.92236328 C40.86469762 56.19163975 45.19018259 62.37623358 49.93359375 68.30859375 C51 70 51 70 51 73 C51.66 73 52.32 73 53 73 C54.55859375 75.0625 54.55859375 75.0625 56.4375 78 C57.14648438 79.08925781 57.85546875 80.17851562 58.5859375 81.30078125 C58.97233398 81.89584473 59.35873047 82.4909082 59.75683594 83.10400391 C61.98066731 86.49565246 64.26919328 89.84258601 66.5625 93.1875 C67.02873779 93.87030029 67.49497559 94.55310059 67.9753418 95.2565918 C71.09351854 99.78768381 74.37212474 104.12020985 77.953125 108.30078125 C78.29859375 108.86152344 78.6440625 109.42226563 79 110 C78.67 110.99 78.34 111.98 78 113 C75.46551696 113.97916424 73.04457113 114.77516408 70.4375 115.5 C65.57325225 116.90532787 60.80692726 118.39454906 56.07885742 120.20996094 C52.22573915 121.67428163 48.32892435 123.01652262 44.4375 124.375 C43.56561035 124.67954102 42.6937207 124.98408203 41.79541016 125.29785156 C22.68248013 131.95465305 22.68248013 131.95465305 13.6875 134.5625 C9.57778669 135.76567265 5.68795398 137.31629294 1.734375 138.953125 C-2.57236103 140.60198965 -6.98651412 141.87236295 -11.41015625 143.16796875 C-13.9038255 143.75151384 -13.9038255 143.75151384 -15 145 C-19.03160191 145.26293056 -20.55892734 145.29404844 -24 143 C-24 142.34 -24 141.68 -24 141 C-24.763125 140.71125 -25.52625 140.4225 -26.3125 140.125 C-29 139 -29 139 -32 137 C-32 136.34 -32 135.68 -32 135 C-32.8971875 134.814375 -32.8971875 134.814375 -33.8125 134.625 C-36 134 -36 134 -39 132 C-39 131.34 -39 130.68 -39 130 C-39.81791016 129.87818359 -39.81791016 129.87818359 -40.65234375 129.75390625 C-43.82656979 128.73456245 -45.93149209 126.97994689 -48.5625 124.9375 C-49.62708288 124.12041411 -50.69219941 123.30402312 -51.7578125 122.48828125 C-52.56460449 121.86687256 -52.56460449 121.86687256 -53.38769531 121.23291016 C-55.87857102 119.32816722 -58.40534726 117.47436359 -60.9375 115.625 C-61.79214844 114.99851562 -62.64679687 114.37203125 -63.52734375 113.7265625 C-66.00580781 111.93931531 -66.00580781 111.93931531 -68.81640625 110.3984375 C-69.53699219 109.93695313 -70.25757813 109.47546875 -71 109 C-71 108.34 -71 107.68 -71 107 C-71.71542969 106.73960937 -72.43085937 106.47921875 -73.16796875 106.2109375 C-76.1413172 104.93957471 -78.63825182 103.43952691 -81.3125 101.625 C-82.19550781 101.03976562 -83.07851562 100.45453125 -83.98828125 99.8515625 C-84.65214844 99.24054688 -85.31601563 98.62953125 -86 98 C-86 96.68 -86 95.36 -86 94 C-85.34 94 -84.68 94 -84 94 C-83.773125 93.46375 -83.54625 92.9275 -83.3125 92.375 C-81.54429911 89.17539839 -79.46329797 86.70962777 -77 84 C-76.34 84 -75.68 84 -75 84 C-74.731875 83.41734375 -74.46375 82.8346875 -74.1875 82.234375 C-72.98519009 79.97213399 -71.66174087 78.19423682 -70 76.25 C-69.484375 75.63640625 -68.96875 75.0228125 -68.4375 74.390625 C-67 73 -67 73 -65 73 C-64.773125 72.46375 -64.54625 71.9275 -64.3125 71.375 C-61.4358719 66.16967296 -57.16874988 62.16874988 -53 58 C-50.90854271 55.6097631 -48.83097124 53.20914985 -46.76953125 50.79296875 C-46.18558594 50.20128906 -45.60164063 49.60960937 -45 49 C-44.34 49 -43.68 49 -43 49 C-42.71125 48.401875 -42.4225 47.80375 -42.125 47.1875 C-41 45 -41 45 -39 42 C-38.34 42 -37.68 42 -37 42 C-36.773125 41.46375 -36.54625 40.9275 -36.3125 40.375 C-33.72301716 35.68926914 -29.97911382 31.56748136 -26 28 C-25.34 28 -24.68 28 -24 28 C-23.77054688 27.45214844 -23.54109375 26.90429688 -23.3046875 26.33984375 C-21.62395795 23.32560122 -19.48046682 21.08222044 -17.125 18.5625 C-14.56758185 15.81804679 -12.0957168 13.12415933 -9.8046875 10.15234375 C-9.20914063 9.44207031 -8.61359375 8.73179687 -8 8 C-7.34 8 -6.68 8 -6 8 C-5.7525 7.4225 -5.505 6.845 -5.25 6.25 C-3.83316683 3.6997003 -2.12372463 1.98214299 0 0 Z " fill="#1283BA" transform="translate(93,171)"/>
<path d="M0 0 C4.228125 -0.04125 8.45625 -0.0825 12.8125 -0.125 C14.1425708 -0.14320801 15.4726416 -0.16141602 16.84301758 -0.18017578 C18.41539185 -0.18766846 18.41539185 -0.18766846 20.01953125 -0.1953125 C21.62985229 -0.21102295 21.62985229 -0.21102295 23.27270508 -0.22705078 C26 0 26 0 29 2 C30.00520285 5.01560854 30.23101114 7.2765902 30.3125 10.4375 C30.34988281 11.38496094 30.38726562 12.33242187 30.42578125 13.30859375 C30 16 30 16 28.55859375 18.33203125 C24.7138169 20.83847356 21.23078821 20.43203202 16.75 20.25 C15.90953125 20.23195312 15.0690625 20.21390625 14.203125 20.1953125 C12.13492605 20.14830798 10.06731559 20.07656724 8 20 C8.01160156 20.71027344 8.02320313 21.42054688 8.03515625 22.15234375 C8.04869141 23.53099609 8.04869141 23.53099609 8.0625 24.9375 C8.07410156 25.85402344 8.08570313 26.77054688 8.09765625 27.71484375 C8 30 8 30 7 31 C17.23 31 27.46 31 38 31 C37.67 30.67 37.34 30.34 37 30 C36.89996711 27.86646826 36.86918952 25.72962458 36.8671875 23.59375 C36.86589844 22.29308594 36.86460937 20.99242187 36.86328125 19.65234375 C36.86537598 18.97155762 36.8674707 18.29077148 36.86962891 17.58935547 C36.8749776 15.50871485 36.8696832 13.42829011 36.86328125 11.34765625 C36.86457031 10.04699219 36.86585938 8.74632812 36.8671875 7.40625 C36.86831543 6.20291016 36.86944336 4.99957031 36.87060547 3.75976562 C37 1 37 1 38 0 C42.09711554 -0.28153006 46.20686753 -0.23184353 50.3125 -0.25 C52.0440332 -0.2809375 52.0440332 -0.2809375 53.81054688 -0.3125 C54.92107422 -0.31765625 56.03160156 -0.3228125 57.17578125 -0.328125 C58.19583252 -0.3374707 59.21588379 -0.34681641 60.2668457 -0.35644531 C63.41972189 0.05473818 64.77889087 0.7457981 67 3 C67.43677042 5.6748423 67.60567237 7.83347152 67.5625 10.5 C67.59827148 11.51513672 67.59827148 11.51513672 67.63476562 12.55078125 C67.62890625 14.53125 67.62890625 14.53125 67 18 C64.46484375 19.96875 64.46484375 19.96875 62 21 C62.5775 21.47050781 63.155 21.94101563 63.75 22.42578125 C64.4925 23.04839844 65.235 23.67101562 66 24.3125 C66.7425 24.92738281 67.485 25.54226562 68.25 26.17578125 C70 28 70 28 70 31 C73.3 31 76.6 31 80 31 C80 30.34 80 29.68 80 29 C79.34 29 78.68 29 78 29 C77.21346432 26.21588241 76.87183558 23.73776683 76.8671875 20.84765625 C76.86589844 20.07099609 76.86460937 19.29433594 76.86328125 18.49414062 C76.86714844 17.69169922 76.87101562 16.88925781 76.875 16.0625 C76.87113281 15.26392578 76.86726563 14.46535156 76.86328125 13.64257812 C76.87741361 5.11370015 76.87741361 5.11370015 78 2 C82.91385691 -1.22902479 88.84919474 -0.32846273 94.5 -0.3125 C95.64082031 -0.32861328 96.78164063 -0.34472656 97.95703125 -0.36132812 C99.05402344 -0.36197266 100.15101563 -0.36261719 101.28125 -0.36328125 C102.28220703 -0.36626221 103.28316406 -0.36924316 104.31445312 -0.37231445 C107.4959971 0.06876323 108.8402954 0.61692114 111 3 C111.50170898 5.69555664 111.50170898 5.69555664 111.49609375 8.91015625 C111.49673828 10.06451172 111.49738281 11.21886719 111.49804688 12.40820312 C111.47806641 13.61412109 111.45808594 14.82003906 111.4375 16.0625 C111.44458984 17.27228516 111.45167969 18.48207031 111.45898438 19.72851562 C111.41055958 26.39251255 111.41055958 26.39251255 111 29 C110.01 29.66 109.02 30.32 108 31 C112.95 31 117.9 31 123 31 C122.505 30.01 122.505 30.01 122 29 C121.90262216 26.906744 121.86923177 24.81036253 121.8671875 22.71484375 C121.86589844 21.46251953 121.86460937 20.21019531 121.86328125 18.91992188 C121.86714844 17.60572266 121.87101562 16.29152344 121.875 14.9375 C121.87113281 13.61943359 121.86726563 12.30136719 121.86328125 10.94335938 C121.86457031 9.69232422 121.86585938 8.44128906 121.8671875 7.15234375 C121.86831543 5.99726318 121.86944336 4.84218262 121.87060547 3.65209961 C122 1 122 1 123 0 C125.07262076 -0.08767112 127.14820294 -0.10695873 129.22265625 -0.09765625 C130.48271484 -0.09443359 131.74277344 -0.09121094 133.04101562 -0.08789062 C134.38151109 -0.07953403 135.72200588 -0.07106907 137.0625 -0.0625 C138.40689942 -0.0574866 139.7513006 -0.05292342 141.09570312 -0.04882812 C144.39717941 -0.03699488 147.69856803 -0.02050971 151 0 C151 2.31 151 4.62 151 7 C144.07 7 137.14 7 130 7 C130 8.98 130 10.96 130 13 C133.63 13 137.26 13 141 13 C141 15.31 141 17.62 141 20 C137.37 20 133.74 20 130 20 C130 23.63 130 27.26 130 31 C138.91 31 147.82 31 157 31 C156.67 30.01 156.34 29.02 156 28 C155.90523615 25.94702157 155.8692776 23.89110082 155.8671875 21.8359375 C155.86589844 20.63195312 155.86460937 19.42796875 155.86328125 18.1875 C155.86714844 16.929375 155.87101563 15.67125 155.875 14.375 C155.87113281 13.10914063 155.86726562 11.84328125 155.86328125 10.5390625 C155.86521484 8.73695313 155.86521484 8.73695313 155.8671875 6.8984375 C155.86831543 5.79161621 155.86944336 4.68479492 155.87060547 3.54443359 C156 1 156 1 157 0 C160.5 -0.125 160.5 -0.125 164 0 C165.85286633 1.85286633 165.1304783 4.89400449 165.1328125 7.37109375 C165.13410156 8.66724609 165.13539063 9.96339844 165.13671875 11.29882812 C165.13462402 11.9776001 165.1325293 12.65637207 165.13037109 13.35571289 C165.1250313 15.42536789 165.13031193 17.494805 165.13671875 19.56445312 C165.13478516 21.51061523 165.13478516 21.51061523 165.1328125 23.49609375 C165.13168457 24.69419678 165.13055664 25.8922998 165.12939453 27.12670898 C165 30 165 30 164 32 C168.62 31.67 173.24 31.34 178 31 C177.01 29.68 176.02 28.36 175 27 C174.61181641 24.48217773 174.61181641 24.48217773 174.6015625 21.68359375 C174.59769531 20.67232422 174.59382812 19.66105469 174.58984375 18.61914062 C174.60724609 17.04422852 174.60724609 17.04422852 174.625 15.4375 C174.61339844 14.38369141 174.60179687 13.32988281 174.58984375 12.24414062 C174.59371094 11.23416016 174.59757813 10.22417969 174.6015625 9.18359375 C174.60494629 8.26118896 174.60833008 7.33878418 174.61181641 6.38842773 C175.07004379 3.56903247 175.77244892 2.72419387 178 1 C181.73810695 -0.86905348 186.19831178 -0.27116522 190.3125 -0.3125 C191.26318359 -0.34150391 192.21386719 -0.37050781 193.19335938 -0.40039062 C197.55969661 -0.44005686 200.27746849 -0.40250204 204.1484375 1.75390625 C207.0840002 5.31497914 206.37299359 7.52407694 206 12 C199.84765625 12.87890625 199.84765625 12.87890625 198 13 C197.67 12.67 197.34 12.34 197 12 C197 10.35 197 8.7 197 7 C192.71 7 188.42 7 184 7 C184 12.28 184 17.56 184 23 C188.29 23 192.58 23 197 23 C197.33 21.35 197.66 19.7 198 18 C203.75 17.875 203.75 17.875 206 19 C206.375 26.5 206.375 26.5 203 31 C207.62 31 212.24 31 217 31 C216.67 30.67 216.34 30.34 216 30 C215.89996711 27.86646826 215.86918952 25.72962458 215.8671875 23.59375 C215.86589844 22.29308594 215.86460937 20.99242187 215.86328125 19.65234375 C215.86537598 18.97155762 215.8674707 18.29077148 215.86962891 17.58935547 C215.8749776 15.50871485 215.8696832 13.42829011 215.86328125 11.34765625 C215.86521484 9.39666016 215.86521484 9.39666016 215.8671875 7.40625 C215.86831543 6.20291016 215.86944336 4.99957031 215.87060547 3.75976562 C216 1 216 1 217 0 C220.5 -0.125 220.5 -0.125 224 0 C225.85286633 1.85286633 225.1304783 4.89400449 225.1328125 7.37109375 C225.13410156 8.66724609 225.13539063 9.96339844 225.13671875 11.29882812 C225.13462402 11.9776001 225.1325293 12.65637207 225.13037109 13.35571289 C225.1250313 15.42536789 225.13031193 17.494805 225.13671875 19.56445312 C225.13478516 21.51061523 225.13478516 21.51061523 225.1328125 23.49609375 C225.13168457 24.69419678 225.13055664 25.8922998 225.12939453 27.12670898 C225 30 225 30 224 32 C228.62 31.67 233.24 31.34 238 31 C237.01 29.68 236.02 28.36 235 27 C234.36051391 23.18985262 234.49048522 19.35824311 234.5 15.5 C234.47164062 14.45457031 234.44328125 13.40914062 234.4140625 12.33203125 C234.39511674 4.93371241 234.39511674 4.93371241 236.74609375 1.3046875 C241.9482563 -0.78117359 247.01722484 -0.49493196 252.5625 -0.375 C254.26696289 -0.37306641 254.26696289 -0.37306641 256.00585938 -0.37109375 C265.68006844 -0.26835879 265.68006844 -0.26835879 269 2 C270.48007742 6.44023226 270.1843724 10.78675298 270.1875 15.4375 C270.19974609 16.39205078 270.21199219 17.34660156 270.22460938 18.33007812 C270.22654297 19.25111328 270.22847656 20.17214844 270.23046875 21.12109375 C270.23457764 21.9608374 270.23868652 22.80058105 270.24291992 23.66577148 C269.97610314 26.22962599 269.37239101 27.82812863 268 30 C267.34 30.33 266.68 30.66 266 31 C267.98 31.99 267.98 31.99 270 33 C270 33.99 270 34.98 270 36 C180.9 36 91.8 36 0 36 C0 24.12 0 12.24 0 0 Z M8 7 C8 8.98 8 10.96 8 13 C12.62 13 17.24 13 22 13 C22 11.35 22 9.7 22 8 C20.88873341 6.66098208 20.88873341 6.66098208 18.05859375 6.90234375 C16.86363281 6.91394531 15.66867188 6.92554688 14.4375 6.9375 C13.23996094 6.94652344 12.04242188 6.95554688 10.80859375 6.96484375 C9.41833984 6.98224609 9.41833984 6.98224609 8 7 Z M45 7 C45 8.98 45 10.96 45 13 C49.95 13 54.9 13 60 13 C60 11.35 60 9.7 60 8 C58.86298403 6.63467451 58.86298403 6.63467451 55.83984375 6.90234375 C54.55207031 6.91394531 53.26429688 6.92554688 51.9375 6.9375 C50.64714844 6.94652344 49.35679687 6.95554688 48.02734375 6.96484375 C47.02832031 6.97644531 46.02929688 6.98804688 45 7 Z M85 7 C85 12.28 85 17.56 85 23 C91.27 23 97.54 23 104 23 C104.020625 20.545625 104.04125 18.09125 104.0625 15.5625 C104.071604 14.78849854 104.08070801 14.01449707 104.09008789 13.21704102 C104.09724913 11.47778283 104.05024702 9.73854696 104 8 C103.02667739 6.80658248 103.02667739 6.80658248 101.23413086 6.88647461 C100.48526611 6.89171143 99.73640137 6.89694824 98.96484375 6.90234375 C98.15595703 6.90556641 97.34707031 6.90878906 96.51367188 6.91210938 C95.66353516 6.92048828 94.81339844 6.92886719 93.9375 6.9375 C93.08349609 6.94201172 92.22949219 6.94652344 91.34960938 6.95117188 C89.23304337 6.96299627 87.11651315 6.98093231 85 7 Z M243 7 C243 12.28 243 17.56 243 23 C248.94 23 254.88 23 261 23 C261 17.72 261 12.44 261 7 C255.06 7 249.12 7 243 7 Z M45 20 C44.67 23.96 44.34 27.92 44 32 C49.61 32 55.22 32 61 32 C60.34 31.67 59.68 31.34 59 31 C59 30.34 59 29.68 59 29 C58.34 29 57.68 29 57 29 C56.67 28.01 56.34 27.02 56 26 C55.34 26 54.68 26 54 26 C53.67 25.01 53.34 24.02 53 23 C52.34 23 51.68 23 51 23 C51 22.34 51 21.68 51 21 C48.03 20.505 48.03 20.505 45 20 Z M93 31 C93 31.33 93 31.66 93 32 C95.97 32 98.94 32 102 32 C102 31.67 102 31.34 102 31 C99.03 31 96.06 31 93 31 Z M190 31 C194 32 194 32 194 32 Z " fill="#B9BBBC" transform="translate(188,229)"/>
<path d="M0 0 C-0.94693238 17.30600562 -3.85675001 34.45240955 -6.55395508 51.5534668 C-9.01791525 67.26105665 -10.8945184 83.04853977 -12.82275391 98.82885742 C-15.01091143 116.71430584 -15.01091143 116.71430584 -16.58935547 125.51000977 C-17.27220673 129.65055675 -17.64858188 133.819974 -18 138 C-25 135 -25 135 -32 132 C-32 131.34 -32 130.68 -32 130 C-32.8971875 129.814375 -32.8971875 129.814375 -33.8125 129.625 C-36 129 -36 129 -39 127 C-39 126.34 -39 125.68 -39 125 C-39.81791016 124.87818359 -39.81791016 124.87818359 -40.65234375 124.75390625 C-43.82656979 123.73456245 -45.93149209 121.97994689 -48.5625 119.9375 C-49.62708288 119.12041411 -50.69219941 118.30402312 -51.7578125 117.48828125 C-52.56460449 116.86687256 -52.56460449 116.86687256 -53.38769531 116.23291016 C-55.87857102 114.32816722 -58.40534726 112.47436359 -60.9375 110.625 C-61.79214844 109.99851562 -62.64679687 109.37203125 -63.52734375 108.7265625 C-66.00580781 106.93931531 -66.00580781 106.93931531 -68.81640625 105.3984375 C-69.53699219 104.93695313 -70.25757813 104.47546875 -71 104 C-71 103.34 -71 102.68 -71 102 C-71.71542969 101.73960937 -72.43085937 101.47921875 -73.16796875 101.2109375 C-76.1413172 99.93957471 -78.63825182 98.43952691 -81.3125 96.625 C-82.19550781 96.03976562 -83.07851562 95.45453125 -83.98828125 94.8515625 C-84.65214844 94.24054688 -85.31601563 93.62953125 -86 93 C-86 91.68 -86 90.36 -86 89 C-85.34 89 -84.68 89 -84 89 C-83.773125 88.46375 -83.54625 87.9275 -83.3125 87.375 C-81.54429911 84.17539839 -79.46329797 81.70962777 -77 79 C-76.34 79 -75.68 79 -75 79 C-74.731875 78.41734375 -74.46375 77.8346875 -74.1875 77.234375 C-72.98519009 74.97213399 -71.66174087 73.19423682 -70 71.25 C-69.484375 70.63640625 -68.96875 70.0228125 -68.4375 69.390625 C-67 68 -67 68 -65 68 C-64.773125 67.46375 -64.54625 66.9275 -64.3125 66.375 C-61.4358719 61.16967296 -57.16874988 57.16874988 -53 53 C-50.90854271 50.6097631 -48.83097124 48.20914985 -46.76953125 45.79296875 C-46.18558594 45.20128906 -45.60164063 44.60960937 -45 44 C-44.34 44 -43.68 44 -43 44 C-42.71125 43.401875 -42.4225 42.80375 -42.125 42.1875 C-41 40 -41 40 -39 37 C-38.34 37 -37.68 37 -37 37 C-36.773125 36.46375 -36.54625 35.9275 -36.3125 35.375 C-33.72301716 30.68926914 -29.97911382 26.56748136 -26 23 C-25.34 23 -24.68 23 -24 23 C-23.77054688 22.45214844 -23.54109375 21.90429688 -23.3046875 21.33984375 C-21.62395795 18.32560122 -19.48046682 16.08222044 -17.125 13.5625 C-14.56758185 10.81804679 -12.0957168 8.12415933 -9.8046875 5.15234375 C-8.91136719 4.08693359 -8.91136719 4.08693359 -8 3 C-7.34 3 -6.68 3 -6 3 C-6 2.34 -6 1.68 -6 1 C-3 0 -3 0 0 0 Z " fill="#025FA2" transform="translate(93,176)"/>
<path d="M0 0 C4.228125 -0.04125 8.45625 -0.0825 12.8125 -0.125 C14.1425708 -0.14320801 15.4726416 -0.16141602 16.84301758 -0.18017578 C18.41539185 -0.18766846 18.41539185 -0.18766846 20.01953125 -0.1953125 C21.62985229 -0.21102295 21.62985229 -0.21102295 23.27270508 -0.22705078 C26 0 26 0 29 2 C30.00520285 5.01560854 30.23101114 7.2765902 30.3125 10.4375 C30.34988281 11.38496094 30.38726562 12.33242187 30.42578125 13.30859375 C30 16 30 16 28.55859375 18.33203125 C24.7138169 20.83847356 21.23078821 20.43203202 16.75 20.25 C15.90953125 20.23195312 15.0690625 20.21390625 14.203125 20.1953125 C12.13492605 20.14830798 10.06731559 20.07656724 8 20 C8.01160156 20.71027344 8.02320313 21.42054688 8.03515625 22.15234375 C8.04869141 23.53099609 8.04869141 23.53099609 8.0625 24.9375 C8.07410156 25.85402344 8.08570313 26.77054688 8.09765625 27.71484375 C8 30 8 30 7 31 C17.23 31 27.46 31 38 31 C38 30.67 38 30.34 38 30 C39.98 30 41.96 30 44 30 C44 26.37 44 22.74 44 19 C45.98 19 47.96 19 50 19 C50.495 19.99 50.495 19.99 51 21 C49.02 20.67 47.04 20.34 45 20 C45.01160156 20.77085937 45.02320313 21.54171875 45.03515625 22.3359375 C45.04417969 23.33882812 45.05320313 24.34171875 45.0625 25.375 C45.07410156 26.37273437 45.08570313 27.37046875 45.09765625 28.3984375 C45 31 45 31 44 33 C83.27 33 122.54 33 163 33 C162.67 33.99 162.34 34.98 162 36 C108.54 36 55.08 36 0 36 C0 24.12 0 12.24 0 0 Z M8 7 C8 8.98 8 10.96 8 13 C12.62 13 17.24 13 22 13 C22 11.35 22 9.7 22 8 C20.88873341 6.66098208 20.88873341 6.66098208 18.05859375 6.90234375 C16.86363281 6.91394531 15.66867188 6.92554688 14.4375 6.9375 C13.23996094 6.94652344 12.04242188 6.95554688 10.80859375 6.96484375 C9.41833984 6.98224609 9.41833984 6.98224609 8 7 Z " fill="#5B6062" transform="translate(188,229)"/>
<path d="M0 0 C1.70446289 0.00193359 1.70446289 0.00193359 3.44335938 0.00390625 C13.11756844 0.10664121 13.11756844 0.10664121 16.4375 2.375 C17.91757742 6.81523226 17.6218724 11.16175298 17.625 15.8125 C17.63724609 16.76705078 17.64949219 17.72160156 17.66210938 18.70507812 C17.66404297 19.62611328 17.66597656 20.54714844 17.66796875 21.49609375 C17.67207764 22.3358374 17.67618652 23.17558105 17.68041992 24.04077148 C17.41219776 26.61813037 16.83923884 28.20312759 15.4375 30.375 C10.42526488 32.81923811 5.39004154 32.67587908 -0.0625 32.625 C-1.30580078 32.63660156 -1.30580078 32.63660156 -2.57421875 32.6484375 C-7.25263006 32.63356179 -11.23961857 32.376334 -15.5625 30.375 C-18.60222924 25.81540613 -17.97046461 21.30309508 -18 15.9375 C-18.03287109 14.88755859 -18.06574219 13.83761719 -18.09960938 12.75585938 C-18.1519634 5.28827177 -18.1519634 5.28827177 -15.8203125 1.67578125 C-10.61500381 -0.4025974 -5.54590526 -0.11994559 0 0 Z M-9.5625 7.375 C-9.5625 12.655 -9.5625 17.935 -9.5625 23.375 C-3.6225 23.375 2.3175 23.375 8.4375 23.375 C8.4375 18.095 8.4375 12.815 8.4375 7.375 C2.4975 7.375 -3.4425 7.375 -9.5625 7.375 Z " fill="#2C2825" transform="translate(440.5625,228.625)"/>
<path d="M0 0 C1.15435547 -0.020625 2.30871094 -0.04125 3.49804688 -0.0625 C4.60857422 -0.06765625 5.71910156 -0.0728125 6.86328125 -0.078125 C7.88333252 -0.0874707 8.90338379 -0.09681641 9.9543457 -0.10644531 C13.10722189 0.30473818 14.46639087 0.9957981 16.6875 3.25 C17.12427042 5.9248423 17.29317237 8.08347152 17.25 10.75 C17.27384766 11.42675781 17.29769531 12.10351562 17.32226562 12.80078125 C17.31640625 14.78125 17.31640625 14.78125 16.6875 18.25 C14.15234375 20.21875 14.15234375 20.21875 11.6875 21.25 C14.3275 23.56 16.9675 25.87 19.6875 28.25 C19.3575 29.57 19.0275 30.89 18.6875 32.25 C10.9375 32.375 10.9375 32.375 8.6875 31.25 C8.6875 30.59 8.6875 29.93 8.6875 29.25 C8.0275 29.25 7.3675 29.25 6.6875 29.25 C5.33363064 27.59997172 4.00071858 25.9325613 2.6875 24.25 C2.0275 23.92 1.3675 23.59 0.6875 23.25 C0.3575 22.26 0.0275 21.27 -0.3125 20.25 C-2.2925 19.92 -4.2725 19.59 -6.3125 19.25 C-6.3125 22.88 -6.3125 26.51 -6.3125 30.25 C-8.6225 30.25 -10.9325 30.25 -13.3125 30.25 C-13.33715746 26.1382744 -13.35533959 22.02657722 -13.36743164 17.91479492 C-13.3724708 16.51504772 -13.37930216 15.1153058 -13.38793945 13.71557617 C-13.4000232 11.70754223 -13.40519807 9.69947043 -13.41015625 7.69140625 C-13.41539307 6.48170166 -13.42062988 5.27199707 -13.42602539 4.02563477 C-13.16536075 -2.34747564 -4.95941391 0.02193218 0 0 Z M-5.3125 7.25 C-5.3125 9.23 -5.3125 11.21 -5.3125 13.25 C-0.3625 13.25 4.5875 13.25 9.6875 13.25 C9.6875 11.6 9.6875 9.95 9.6875 8.25 C8.55048403 6.88467451 8.55048403 6.88467451 5.52734375 7.15234375 C4.23957031 7.16394531 2.95179688 7.17554688 1.625 7.1875 C0.33464844 7.19652344 -0.95570313 7.20554688 -2.28515625 7.21484375 C-3.28417969 7.22644531 -4.28320312 7.23804688 -5.3125 7.25 Z " fill="#332F2E" transform="translate(238.3125,228.75)"/>
<path d="M0 0 C1.71123047 -0.02416992 1.71123047 -0.02416992 3.45703125 -0.04882812 C4.55402344 -0.04947266 5.65101563 -0.05011719 6.78125 -0.05078125 C7.78220703 -0.05376221 8.78316406 -0.05674316 9.81445312 -0.05981445 C12.99734385 0.38144994 14.34605079 0.92069524 16.5 3.3125 C16.95410156 6.03979492 16.95410156 6.03979492 16.890625 9.29296875 C16.87773437 10.45634766 16.86484375 11.61972656 16.8515625 12.81835938 C16.81804687 14.03330078 16.78453125 15.24824219 16.75 16.5 C16.73195313 17.72654297 16.71390625 18.95308594 16.6953125 20.21679688 C16.64811124 23.24947759 16.58227677 26.28060087 16.5 29.3125 C12.5977022 31.15324045 9.68794723 31.51226359 5.39453125 31.32421875 C4.24662109 31.27716797 3.09871094 31.23011719 1.91601562 31.18164062 C0.72685547 31.12169922 -0.46230469 31.06175781 -1.6875 31 C-2.88826172 30.95166016 -4.08902344 30.90332031 -5.32617188 30.85351562 C-14.20863288 30.45818356 -14.20863288 30.45818356 -16.5 29.3125 C-17.43568361 26.57694044 -17.62818819 24.03548666 -17.6328125 21.16015625 C-17.63410156 20.38349609 -17.63539063 19.60683594 -17.63671875 18.80664062 C-17.63285156 18.00419922 -17.62898438 17.20175781 -17.625 16.375 C-17.62886719 15.57642578 -17.63273437 14.77785156 -17.63671875 13.95507812 C-17.62258639 5.42620015 -17.62258639 5.42620015 -16.5 2.3125 C-11.58614309 -0.91652479 -5.65080526 -0.01596273 0 0 Z M-9.5 7.3125 C-9.5 12.5925 -9.5 17.8725 -9.5 23.3125 C-3.23 23.3125 3.04 23.3125 9.5 23.3125 C9.520625 20.858125 9.54125 18.40375 9.5625 15.875 C9.571604 15.10099854 9.58070801 14.32699707 9.59008789 13.52954102 C9.59724913 11.79028283 9.55024702 10.05104696 9.5 8.3125 C8.52667739 7.11908248 8.52667739 7.11908248 6.73413086 7.19897461 C5.98526611 7.20421143 5.23640137 7.20944824 4.46484375 7.21484375 C3.65595703 7.21806641 2.84707031 7.22128906 2.01367188 7.22460938 C1.16353516 7.23298828 0.31339844 7.24136719 -0.5625 7.25 C-1.41650391 7.25451172 -2.27050781 7.25902344 -3.15039062 7.26367188 C-5.26695663 7.27549627 -7.38348685 7.29343231 -9.5 7.3125 Z " fill="#322D2B" transform="translate(282.5,228.6875)"/>
<path d="M0 0 C0.95068359 -0.02900391 1.90136719 -0.05800781 2.88085938 -0.08789062 C7.24719661 -0.12755686 9.96496849 -0.09000204 13.8359375 2.06640625 C16.7715002 5.62747914 16.06049359 7.83657694 15.6875 12.3125 C9.53515625 13.19140625 9.53515625 13.19140625 7.6875 13.3125 C7.3575 12.9825 7.0275 12.6525 6.6875 12.3125 C6.6875 10.6625 6.6875 9.0125 6.6875 7.3125 C2.3975 7.3125 -1.8925 7.3125 -6.3125 7.3125 C-6.3125 12.5925 -6.3125 17.8725 -6.3125 23.3125 C-2.0225 23.3125 2.2675 23.3125 6.6875 23.3125 C7.0175 21.6625 7.3475 20.0125 7.6875 18.3125 C13.4375 18.1875 13.4375 18.1875 15.6875 19.3125 C15.9375 26.9375 15.9375 26.9375 13.6875 30.3125 C11.22900391 30.70068359 11.22900391 30.70068359 8.1640625 30.7109375 C7.060625 30.71480469 5.9571875 30.71867187 4.8203125 30.72265625 C3.66273438 30.71105469 2.50515625 30.69945312 1.3125 30.6875 C0.16265625 30.69910156 -0.9871875 30.71070313 -2.171875 30.72265625 C-3.83089844 30.71685547 -3.83089844 30.71685547 -5.5234375 30.7109375 C-6.53712402 30.70755371 -7.55081055 30.70416992 -8.59521484 30.70068359 C-11.76621773 30.24768318 -13.13592282 29.66130597 -15.3125 27.3125 C-15.81420898 24.90820312 -15.81420898 24.90820312 -15.80859375 22.09375 C-15.80923828 21.07925781 -15.80988281 20.06476563 -15.81054688 19.01953125 C-15.79056641 17.96121094 -15.77058594 16.90289062 -15.75 15.8125 C-15.75708984 14.75417969 -15.76417969 13.69585937 -15.77148438 12.60546875 C-15.70709042 4.80884707 -15.70709042 4.80884707 -13.91040039 2.54882812 C-9.73960996 -0.6781975 -5.06832813 0.05092091 0 0 Z " fill="#373331" transform="translate(378.3125,228.6875)"/>
<path d="M0 0 C6.373125 -0.0309375 6.373125 -0.0309375 12.875 -0.0625 C14.2141748 -0.071604 15.55334961 -0.08070801 16.93310547 -0.09008789 C18.50922607 -0.09383423 18.50922607 -0.09383423 20.1171875 -0.09765625 C21.73536377 -0.10551147 21.73536377 -0.10551147 23.38623047 -0.11352539 C26 0 26 0 28 1 C29.00520285 4.01560854 29.23101114 6.2765902 29.3125 9.4375 C29.34988281 10.38496094 29.38726562 11.33242187 29.42578125 12.30859375 C29 15 29 15 27.55859375 17.33203125 C23.7138169 19.83847356 20.23078821 19.43203202 15.75 19.25 C14.90953125 19.23195312 14.0690625 19.21390625 13.203125 19.1953125 C11.13492605 19.14830798 9.06731559 19.07656724 7 19 C7 22.3 7 25.6 7 29 C4.69 29 2.38 29 0 29 C0 19.43 0 9.86 0 0 Z M7 6 C7 7.98 7 9.96 7 12 C11.62 12 16.24 12 21 12 C21 10.35 21 8.7 21 7 C19.88873341 5.66098208 19.88873341 5.66098208 17.05859375 5.90234375 C15.86363281 5.91394531 14.66867188 5.92554688 13.4375 5.9375 C12.23996094 5.94652344 11.04242188 5.95554688 9.80859375 5.96484375 C8.41833984 5.98224609 8.41833984 5.98224609 7 6 Z " fill="#1F1B19" transform="translate(189,230)"/>
<path d="M0 0 C1.16781006 0.00523682 2.33562012 0.01047363 3.53881836 0.01586914 C4.79887695 0.0190918 6.05893555 0.02231445 7.35717773 0.02563477 C8.6976732 0.03399136 10.03816799 0.04245632 11.37866211 0.05102539 C12.72306153 0.05603879 14.06746271 0.06060197 15.41186523 0.06469727 C18.71334151 0.07653051 22.01473014 0.09301568 25.31616211 0.11352539 C25.31616211 2.42352539 25.31616211 4.73352539 25.31616211 7.11352539 C18.38616211 7.11352539 11.45616211 7.11352539 4.31616211 7.11352539 C4.31616211 9.09352539 4.31616211 11.07352539 4.31616211 13.11352539 C7.94616211 13.11352539 11.57616211 13.11352539 15.31616211 13.11352539 C15.31616211 15.42352539 15.31616211 17.73352539 15.31616211 20.11352539 C11.68616211 20.11352539 8.05616211 20.11352539 4.31616211 20.11352539 C4.33678711 21.90790039 4.35741211 23.70227539 4.37866211 25.55102539 C4.39997431 27.40518661 4.38842713 29.26065038 4.31616211 31.11352539 C3.31616211 32.11352539 3.31616211 32.11352539 0.87866211 32.36352539 C0.03303711 32.28102539 -0.81258789 32.19852539 -1.68383789 32.11352539 C-4.06478374 28.54210662 -3.92942726 26.96626423 -3.91430664 22.73071289 C-3.91237305 21.48161133 -3.91043945 20.23250977 -3.90844727 18.94555664 C-3.89620117 17.63973633 -3.88395508 16.33391602 -3.87133789 14.98852539 C-3.87069336 13.6749707 -3.87004883 12.36141602 -3.86938477 11.00805664 C-3.81890976 0.16153853 -3.81890976 0.16153853 0 0 Z " fill="#43403E" transform="translate(313.683837890625,228.886474609375)"/>
<path d="M0 0 C0.90306381 -0.00137466 1.80612762 -0.00274933 2.73655701 -0.00416565 C4.22656471 0.00122726 4.22656471 0.00122726 5.74667358 0.00672913 C6.79059769 0.0065831 7.83452179 0.00643707 8.91007996 0.00628662 C12.37304741 0.0069853 15.83596158 0.01477561 19.29891968 0.02259827 C21.69502737 0.02446261 24.09113544 0.02588643 26.48724365 0.02688599 C32.80344693 0.03070991 39.11962732 0.04053914 45.43582153 0.05158997 C51.8771636 0.06180677 58.31850935 0.06638419 64.75985718 0.07142639 C77.40570029 0.0821615 90.05152752 0.09904506 102.69735718 0.12025452 C102.69735718 1.11025452 102.69735718 2.10025452 102.69735718 3.12025452 C67.05735718 3.12025452 31.41735718 3.12025452 -5.30264282 3.12025452 C-5.63264282 2.46025452 -5.96264282 1.80025452 -6.30264282 1.12025452 C-3.96337225 -0.04938077 -2.60587634 -0.00305138 0 0 Z " fill="#5D6163" transform="translate(355.3026428222656,261.87974548339844)"/>
<path d="M0 0 C1.32 0.66 2.64 1.32 4 2 C4.13501894 4.43934225 4.23403897 6.87124104 4.3125 9.3125 C4.35439453 10.00279297 4.39628906 10.69308594 4.43945312 11.40429688 C4.48828125 13.42578125 4.48828125 13.42578125 4 17 C1.48046875 18.98046875 1.48046875 18.98046875 -1 20 C1.64 22.31 4.28 24.62 7 27 C6.67 28.32 6.34 29.64 6 31 C-1.75 31.125 -1.75 31.125 -4 30 C-4 29.34 -4 28.68 -4 28 C-4.66 28 -5.32 28 -6 28 C-7.35386936 26.34997172 -8.68678142 24.6825613 -10 23 C-10.66 22.67 -11.32 22.34 -12 22 C-12 20.35 -12 18.7 -12 17 C-10.7934375 16.5359375 -10.7934375 16.5359375 -9.5625 16.0625 C-7.10919595 15.23664655 -7.10919595 15.23664655 -6 14 C-9.63 13.67 -13.26 13.34 -17 13 C-17 12.67 -17 12.34 -17 12 C-12.38 12 -7.76 12 -3 12 C-3.33 10.35 -3.66 8.7 -4 7 C-10.93 6.505 -10.93 6.505 -18 6 C-18 7.98 -18 9.96 -18 12 C-18.33 12 -18.66 12 -19 12 C-19 9.69 -19 7.38 -19 5 C-18.19175781 4.93941406 -17.38351563 4.87882813 -16.55078125 4.81640625 C-14.94783203 4.69072266 -14.94783203 4.69072266 -13.3125 4.5625 C-12.25675781 4.48128906 -11.20101562 4.40007812 -10.11328125 4.31640625 C-6.53816268 3.95306296 -3.23289335 3.61644668 0 2 C0 1.34 0 0.68 0 0 Z " fill="#322F2C" transform="translate(251,230)"/>
<path d="M0 0 C3.5 0.125 3.5 0.125 4.5 1.125 C4.60005826 3.24680138 4.63081087 5.37193539 4.6328125 7.49609375 C4.63474609 9.44032227 4.63474609 9.44032227 4.63671875 11.42382812 C4.63357666 12.44198608 4.63357666 12.44198608 4.63037109 13.48071289 C4.6250313 15.55036789 4.63031193 17.619805 4.63671875 19.68945312 C4.63542969 20.98689453 4.63414062 22.28433594 4.6328125 23.62109375 C4.63168457 24.81919678 4.63055664 26.0172998 4.62939453 27.25170898 C4.5 30.125 4.5 30.125 3.5 32.125 C0.625 32.25 0.625 32.25 -2.5 32.125 C-4.5 30.125 -4.5 30.125 -4.74291992 27.25170898 C-4.73881104 26.05360596 -4.73470215 24.85550293 -4.73046875 23.62109375 C-4.72853516 22.32365234 -4.72660156 21.02621094 -4.72460938 19.68945312 C-4.71840576 19.01277588 -4.71220215 18.33609863 -4.70581055 17.63891602 C-4.68754052 15.56709529 -4.68530095 13.49572103 -4.68554688 11.42382812 C-4.6351617 0.16554149 -4.6351617 0.16554149 0 0 Z " fill="#55524F" transform="translate(408.5,228.875)"/>
<path d="M0 0 C0.95068359 -0.02900391 1.90136719 -0.05800781 2.88085938 -0.08789062 C7.24719661 -0.12755686 9.96496849 -0.09000204 13.8359375 2.06640625 C16.7715002 5.62747914 16.06049359 7.83657694 15.6875 12.3125 C9.53515625 13.19140625 9.53515625 13.19140625 7.6875 13.3125 C6.6875 12.3125 6.6875 12.3125 6.625 9.75 C6.645625 8.945625 6.66625 8.14125 6.6875 7.3125 C4.62472893 7.45444764 2.56228969 7.60122216 0.5 7.75 C-0.64855469 7.83121094 -1.79710937 7.91242188 -2.98046875 7.99609375 C-5.83050258 8.26673002 -8.51695377 8.7216119 -11.3125 9.3125 C-11.9725 9.3125 -12.6325 9.3125 -13.3125 9.3125 C-13.6425 15.2525 -13.9725 21.1925 -14.3125 27.3125 C-14.6425 27.3125 -14.9725 27.3125 -15.3125 27.3125 C-15.399485 23.54181168 -15.45288579 19.77138068 -15.5 16 C-15.52513672 14.92814453 -15.55027344 13.85628906 -15.57617188 12.75195312 C-15.58583984 11.72392578 -15.59550781 10.69589844 -15.60546875 9.63671875 C-15.6211792 8.68885498 -15.63688965 7.74099121 -15.65307617 6.7644043 C-15.25189713 3.87620277 -14.59357127 3.05839819 -12.3125 1.3125 C-8.57439305 -0.55655348 -4.11418822 0.04133478 0 0 Z " fill="#464240" transform="translate(378.3125,228.6875)"/>
<path d="M0 0 C3.5 0.125 3.5 0.125 4.5 1.125 C4.60005826 3.24680138 4.63081087 5.37193539 4.6328125 7.49609375 C4.63474609 9.44032227 4.63474609 9.44032227 4.63671875 11.42382812 C4.63357666 12.44198608 4.63357666 12.44198608 4.63037109 13.48071289 C4.6250313 15.55036789 4.63031193 17.619805 4.63671875 19.68945312 C4.63542969 20.98689453 4.63414062 22.28433594 4.6328125 23.62109375 C4.63168457 24.81919678 4.63055664 26.0172998 4.62939453 27.25170898 C4.5 30.125 4.5 30.125 3.5 32.125 C1.19 31.795 -1.12 31.465 -3.5 31.125 C-4.59282967 27.84651099 -4.6293042 25.41059684 -4.6328125 21.9609375 C-4.63410156 20.75695312 -4.63539063 19.55296875 -4.63671875 18.3125 C-4.63285156 17.054375 -4.62898438 15.79625 -4.625 14.5 C-4.62886719 13.23414063 -4.63273437 11.96828125 -4.63671875 10.6640625 C-4.63542969 9.46265625 -4.63414062 8.26125 -4.6328125 7.0234375 C-4.63168457 5.91661621 -4.63055664 4.80979492 -4.62939453 3.66943359 C-4.42897935 -0.27156075 -4.08672055 0.14595431 0 0 Z " fill="#3E3938" transform="translate(348.5,228.875)"/>
<path d="M0 0 C8.58 0 17.16 0 26 0 C26 0.33 26 0.66 26 1 C17.75 1 9.5 1 1 1 C1 10.57 1 20.14 1 30 C2.98 30 4.96 30 7 30 C7 30.33 7 30.66 7 31 C17.23 31 27.46 31 38 31 C38 30.67 38 30.34 38 30 C39.98 30 41.96 30 44 30 C44 26.37 44 22.74 44 19 C45.98 19 47.96 19 50 19 C50.495 19.99 50.495 19.99 51 21 C49.02 20.67 47.04 20.34 45 20 C45.01160156 20.77085937 45.02320313 21.54171875 45.03515625 22.3359375 C45.04417969 23.33882812 45.05320313 24.34171875 45.0625 25.375 C45.07410156 26.37273437 45.08570313 27.37046875 45.09765625 28.3984375 C45 31 45 31 44 33 C43.34 33 42.68 33 42 33 C42 33.66 42 34.32 42 35 C36.5435281 35.77300019 31.28749856 36.13829395 25.78125 36.09765625 C24.7907666 36.09614563 24.7907666 36.09614563 23.78027344 36.09460449 C21.35349753 36.08943936 18.9267467 36.0754791 16.5 36.0625 C11.055 36.041875 5.61 36.02125 0 36 C0 24.12 0 12.24 0 0 Z " fill="#797776" transform="translate(188,229)"/>
<path d="M0 0 C1.99954746 -0.04254356 4.00041636 -0.04080783 6 0 C7 1 7 1 7.09765625 4.59765625 C7.0909822 6.08596867 7.07902183 7.57426432 7.0625 9.0625 C7.05798828 9.82111328 7.05347656 10.57972656 7.04882812 11.36132812 C7.0370068 13.24091871 7.01907078 15.12046899 7 17 C11.30484256 17.73600629 14.88717264 18.05770776 19.1875 17.3125 C23.66607345 16.75353041 23.66607345 16.75353041 26.625 18.9375 C27.305625 19.9584375 27.305625 19.9584375 28 21 C24.72287017 23.18475322 23.76132616 23.2479325 19.96484375 23.23046875 C18.99095703 23.22853516 18.01707031 23.22660156 17.01367188 23.22460938 C15.99853516 23.21236328 14.98339844 23.20011719 13.9375 23.1875 C12.91849609 23.18685547 11.89949219 23.18621094 10.84960938 23.18554688 C3.28080986 23.14040493 3.28080986 23.14040493 1 22 C0.03335091 19.20110283 -0.11867982 16.61517492 -0.09765625 13.671875 C-0.09282227 12.47304687 -0.09282227 12.47304687 -0.08789062 11.25 C-0.07951172 10.425 -0.07113281 9.6 -0.0625 8.75 C-0.05798828 7.90953125 -0.05347656 7.0690625 -0.04882812 6.203125 C-0.03707961 4.13538599 -0.01914522 2.06768376 0 0 Z " fill="#2C2826" transform="translate(265,236)"/>
<path d="M0 0 C2.39133783 1.5427986 2.84987415 2.6139621 3.875 5.25 C4.05412259 9.19069707 2.92792512 11.59399895 1 15 C-1.92825517 16.89940876 -3.58447455 17.01696022 -7.0625 16.875 C-10.59115184 15.82391222 -11.95131497 15.07302755 -14 12 C-14.70910553 8.11983826 -14.56618837 5.05149269 -12.6875 1.5625 C-8.91400343 -1.9314783 -4.63554612 -1.08388552 0 0 Z M-10 4 C-10 6.31 -10 8.62 -10 11 C-9.67 11 -9.34 11 -9 11 C-9 8.69 -9 6.38 -9 4 C-9.33 4 -9.66 4 -10 4 Z M-1 6 C-1.33 7.32 -1.66 8.64 -2 10 C-1.34 10 -0.68 10 0 10 C-0.33 8.68 -0.66 7.36 -1 6 Z " fill="#6299C0" transform="translate(477,220)"/>
<path d="M0 0 C1.70446289 0.00193359 1.70446289 0.00193359 3.44335938 0.00390625 C12.61762448 0.10133207 12.61762448 0.10133207 16.4375 2.375 C16.1075 3.365 15.7775 4.355 15.4375 5.375 C14.7775 5.045 14.1175 4.715 13.4375 4.375 C13.4375 3.715 13.4375 3.055 13.4375 2.375 C11.4575 3.695 9.4775 5.015 7.4375 6.375 C8.0975 6.375 8.7575 6.375 9.4375 6.375 C9.4375 9.015 9.4375 11.655 9.4375 14.375 C9.1075 14.375 8.7775 14.375 8.4375 14.375 C8.4375 12.065 8.4375 9.755 8.4375 7.375 C7.88288086 7.42624023 7.32826172 7.47748047 6.75683594 7.53027344 C4.23509625 7.75070154 1.71193971 7.93814017 -0.8125 8.125 C-1.68519531 8.20621094 -2.55789063 8.28742188 -3.45703125 8.37109375 C-9.97848332 8.81913244 -9.97848332 8.81913244 -13.171875 6.390625 C-13.63078125 5.72546875 -14.0896875 5.0603125 -14.5625 4.375 C-16.21329442 6.02579442 -15.78799447 8.01236179 -15.87890625 10.28515625 C-15.92080078 11.27451172 -15.96269531 12.26386719 -16.00585938 13.28320312 C-16.04517578 14.32412109 -16.08449219 15.36503906 -16.125 16.4375 C-16.16818359 17.48228516 -16.21136719 18.52707031 -16.25585938 19.60351562 C-16.36231225 22.19386884 -16.4643276 24.78432186 -16.5625 27.375 C-16.8925 27.375 -17.2225 27.375 -17.5625 27.375 C-17.70778105 23.62540783 -17.79656281 19.87653895 -17.875 16.125 C-17.91689453 15.06152344 -17.95878906 13.99804688 -18.00195312 12.90234375 C-18.1222736 5.24996144 -18.1222736 5.24996144 -15.828125 1.6640625 C-10.61581196 -0.39342949 -5.54599879 -0.11994761 0 0 Z " fill="#504D4B" transform="translate(440.5625,228.625)"/>
<path d="M0 0 C3 0 3 0 5 1 C5 2.65 5 4.3 5 6 C8.63 6 12.26 6 16 6 C16 7.65 16 9.3 16 11 C12.7 11 9.4 11 6 11 C6.01160156 11.85464844 6.02320313 12.70929688 6.03515625 13.58984375 C6.04417969 14.69457031 6.05320312 15.79929688 6.0625 16.9375 C6.07410156 18.03964844 6.08570313 19.14179688 6.09765625 20.27734375 C6 23 6 23 5 24 C2.5625 24.25 2.5625 24.25 0 24 C-2.13188409 20.80217387 -2.22833717 20.23532082 -2.01171875 16.62109375 C-1.96466797 15.78255859 -1.91761719 14.94402344 -1.86914062 14.08007812 C-1.80919922 13.20802734 -1.74925781 12.33597656 -1.6875 11.4375 C-1.63916016 10.56158203 -1.59082031 9.68566406 -1.54101562 8.78320312 C-1.14628067 2.29256135 -1.14628067 2.29256135 0 0 Z " fill="#1F1A18" transform="translate(312,237)"/>
<path d="M0 0 C0.78246094 -0.02578125 1.56492188 -0.0515625 2.37109375 -0.078125 C4.5625 0.25 4.5625 0.25 6.32421875 1.484375 C7.88561632 3.71072106 7.96452025 5.04797547 7.9375 7.75 C7.94523437 8.5234375 7.95296875 9.296875 7.9609375 10.09375 C7.4664627 12.76973125 6.72109562 13.62980698 4.5625 15.25 C1.18286578 16.04882263 -1.37011775 16.53848169 -4.75 15.625 C-7.08561344 13.72190757 -7.69421516 12.15556802 -8.4375 9.25 C-8.09599104 6.38132471 -7.35227075 3.99431224 -6.4375 1.25 C-4.11063547 0.08656773 -2.59028587 0.05104012 0 0 Z M-1.4375 5.25 C-1.4375 7.23 -1.4375 9.21 -1.4375 11.25 C-0.4475 11.25 0.5425 11.25 1.5625 11.25 C1.5625 9.27 1.5625 7.29 1.5625 5.25 C0.5725 5.25 -0.4175 5.25 -1.4375 5.25 Z " fill="#4D88B2" transform="translate(235.4375,267.75)"/>
<path d="M0 0 C0.99386719 0.02707031 1.98773438 0.05414063 3.01171875 0.08203125 C4.15060547 0.13423828 4.15060547 0.13423828 5.3125 0.1875 C5.3125 1.8375 5.3125 3.4875 5.3125 5.1875 C2.6725 5.5175 0.0325 5.8475 -2.6875 6.1875 C-2.6875 7.1775 -2.6875 8.1675 -2.6875 9.1875 C-2.3575 8.1975 -2.0275 7.2075 -1.6875 6.1875 C0.6225 6.1875 2.9325 6.1875 5.3125 6.1875 C5.3125 9.1575 5.3125 12.1275 5.3125 15.1875 C2.44641871 16.62054064 0.49949217 16.49394155 -2.6875 16.1875 C-6.0625 14.75 -6.0625 14.75 -8.6875 12.1875 C-9.3747287 9.09217724 -9.42093227 6.27473817 -8.6875 3.1875 C-6.34445546 -0.31930839 -4.01668459 -0.14176534 0 0 Z " fill="#2B76A8" transform="translate(196.6875,267.8125)"/>
<path d="M0 0 C2.64 0.33 5.28 0.66 8 1 C-2.2560523 6.35541343 -13.89566485 9.31940017 -24.8515625 12.90820312 C-26.016875 13.29298828 -27.1821875 13.67777344 -28.3828125 14.07421875 C-29.43871582 14.42057373 -30.49461914 14.76692871 -31.58251953 15.1237793 C-33.91855603 15.77727821 -33.91855603 15.77727821 -35 17 C-39.03160191 17.26293056 -40.55892734 17.29404844 -44 15 C-44 14.34 -44 13.68 -44 13 C-44.99 12.67 -45.98 12.34 -47 12 C-45.68 11.67 -44.36 11.34 -43 11 C-43 11.66 -43 12.32 -43 13 C-41.68 13.33 -40.36 13.66 -39 14 C-38.67 11.03 -38.34 8.06 -38 5 C-37.34 5.66 -36.68 6.32 -36 7 C-33.6670386 7.04166002 -31.3329614 7.04166002 -29 7 C-27 8 -27 8 -26 10 C-23.97536745 10.65213292 -23.97536745 10.65213292 -22 11 C-22 10.01 -22 9.02 -22 8 C-21.12988281 7.81824219 -21.12988281 7.81824219 -20.2421875 7.6328125 C-16.65969845 6.86429175 -13.21760895 6.07532618 -9.75 4.875 C-6.99303928 3.99778523 -4.87094768 3.83112072 -2 4 C-2 3.34 -2 2.68 -2 2 C-1.34 2 -0.68 2 0 2 C0 1.34 0 0.68 0 0 Z " fill="#1281B7" transform="translate(113,299)"/>
<path d="M0 0 C1.65 0 3.3 0 5 0 C6.8125 2.5 6.8125 2.5 8 5 C8.33 3.35 8.66 1.7 9 0 C9.99 0 10.98 0 12 0 C13.44207941 2.88415883 13.09394887 5.41721528 13.0625 8.625 C13.05347656 9.81351562 13.04445313 11.00203125 13.03515625 12.2265625 C13.02355469 13.14179688 13.01195312 14.05703125 13 15 C10.61328125 15.15625 10.61328125 15.15625 8 15 C6.1875 12.5 6.1875 12.5 5 10 C4.67 11.65 4.34 13.3 4 15 C2.68 15 1.36 15 0 15 C0 10.05 0 5.1 0 0 Z " fill="#4190C1" transform="translate(322,268)"/>
<path d="M0 0 C2.64701022 1.32350511 3.04357118 2.20428498 4 5 C3.82182521 8.38532098 3.64641794 10.9793401 1.8125 13.875 C-0.7941818 15.49294043 -2.95262103 15.81342578 -6 16 C-8.59824558 15.20609163 -9.6521811 14.44719573 -11.3125 12.3125 C-12.31858949 8.92838082 -11.80442399 6.40333226 -11 3 C-8.63674775 -1.30945999 -4.34682345 -0.27598879 0 0 Z M-5 3 C-7.34973818 4.89755144 -7.34973818 4.89755144 -7.125 8.125 C-7.08375 9.07375 -7.0425 10.0225 -7 11 C-3.95086772 12.01111093 -3.95086772 12.01111093 -1 11 C-0.79029441 6.85906302 -0.79029441 6.85906302 -2 3 C-2.99 3 -3.98 3 -5 3 Z " fill="#5C9EBF" transform="translate(390,268)"/>
<path d="M0 0 C1.9375 1.0625 1.9375 1.0625 3 3 C3.81024071 6.42794145 4.34856361 8.92526221 3.25 12.3125 C2 14 2 14 -1 16 C-4.3675602 15.81959499 -6.99113606 15.63894716 -9.875 13.8125 C-11.50251421 11.19039376 -11.81577304 9.07044927 -12 6 C-11.1875 3.1875 -11.1875 3.1875 -10 1 C-6.81051517 -0.59474241 -3.47042511 -0.37691092 0 0 Z M-6 3 C-7.35439668 5.70879335 -7.06501451 8.00933268 -7 11 C-3.95086772 12.01111093 -3.95086772 12.01111093 -1 11 C-0.79029441 6.85906302 -0.79029441 6.85906302 -2 3 C-3.32 3 -4.64 3 -6 3 Z " fill="#5EA3C4" transform="translate(353,268)"/>
<path d="M0 0 C3.63 0 7.26 0 11 0 C11 5 11 10 11 15 C7.37 15 3.74 15 0 15 C0 10.05 0 5.1 0 0 Z " fill="#0D5E99" transform="translate(210,268)"/>
<path d="M0 0 C2.527528 0.00358515 4.99046317 0.11988731 7.50390625 0.37890625 C7.50390625 1.69890625 7.50390625 3.01890625 7.50390625 4.37890625 C6.36953125 4.35828125 5.23515625 4.33765625 4.06640625 4.31640625 C0.68814951 3.96313148 0.68814951 3.96313148 -0.49609375 5.37890625 C-0.53673207 7.0450774 -0.53881475 8.7127872 -0.49609375 10.37890625 C0.82390625 11.03890625 2.14390625 11.69890625 3.50390625 12.37890625 C3.50390625 11.38890625 3.50390625 10.39890625 3.50390625 9.37890625 C2.51390625 9.37890625 1.52390625 9.37890625 0.50390625 9.37890625 C0.50390625 8.38890625 0.50390625 7.39890625 0.50390625 6.37890625 C5.25390625 5.25390625 5.25390625 5.25390625 7.50390625 6.37890625 C7.50390625 9.34890625 7.50390625 12.31890625 7.50390625 15.37890625 C4.61528916 16.8232148 2.70742924 16.75579131 -0.49609375 16.37890625 C-3.39889874 14.12116904 -5.08781088 12.31555519 -6.55859375 8.94140625 C-6.44667442 4.35271387 -4.85137114 0.73643662 0 0 Z " fill="#53A1C4" transform="translate(405.49609375,267.62109375)"/>
<path d="M0 0 C1.875 0.75 1.875 0.75 2.875 2.75 C2.94694869 5.63370333 2.96791708 8.49239664 2.9375 11.375 C2.93298828 12.17679688 2.92847656 12.97859375 2.92382812 13.8046875 C2.91203168 15.78649006 2.89409605 17.76825433 2.875 19.75 C1.885 20.08 0.895 20.41 -0.125 20.75 C-0.125 22.4 -0.125 24.05 -0.125 25.75 C-1.775 26.08 -3.425 26.41 -5.125 26.75 C-4.795 26.13125 -4.465 25.5125 -4.125 24.875 C-2.64276673 21.72525429 -3.3313846 19.87937245 -4.1875 16.625 C-5.26160725 11.99056524 -4.97194497 8.40819732 -4.125 3.75 C-4.785 3.75 -5.445 3.75 -6.125 3.75 C-4.71177655 0.9235531 -3.23351772 -0.38041385 0 0 Z " fill="#201B19" transform="translate(454.125,231.25)"/>
<path d="M0 0 C2.20257572 3.30386358 2.32249903 4.56817877 2.375 8.4375 C2.41753906 9.85869141 2.41753906 9.85869141 2.4609375 11.30859375 C2 14 2 14 0.5546875 16.33203125 C-3.28690874 18.84022941 -6.77116882 18.43195252 -11.25 18.25 C-12.09046875 18.23195312 -12.9309375 18.21390625 -13.796875 18.1953125 C-15.86507395 18.14830798 -17.93268441 18.07656724 -20 18 C-20 21.3 -20 24.6 -20 28 C-20.33 28 -20.66 28 -21 28 C-21 24.37 -21 20.74 -21 17 C-12.585 16.505 -12.585 16.505 -4 16 C-2.54685336 11.39467611 -2.54685336 11.39467611 -4 9 C-4.33 10.32 -4.66 11.64 -5 13 C-10.28 12.67 -15.56 12.34 -21 12 C-21 9.36 -21 6.72 -21 4 C-19.10314453 4.01740234 -19.10314453 4.01740234 -17.16796875 4.03515625 C-15.50781398 4.04453566 -13.84765761 4.0536357 -12.1875 4.0625 C-11.35412109 4.07087891 -10.52074219 4.07925781 -9.66210938 4.08789062 C-8.45844727 4.09272461 -8.45844727 4.09272461 -7.23046875 4.09765625 C-6.49207764 4.10289307 -5.75368652 4.10812988 -4.99291992 4.11352539 C-2.78942591 4.07523213 -2.78942591 4.07523213 0 3 C0 2.01 0 1.02 0 0 Z M-20 5 C-20 6.98 -20 8.96 -20 11 C-15.38 11 -10.76 11 -6 11 C-6 9.35 -6 7.7 -6 6 C-7.11126659 4.66098208 -7.11126659 4.66098208 -9.94140625 4.90234375 C-11.13636719 4.91394531 -12.33132812 4.92554688 -13.5625 4.9375 C-14.76003906 4.94652344 -15.95757812 4.95554688 -17.19140625 4.96484375 C-18.58166016 4.98224609 -18.58166016 4.98224609 -20 5 Z " fill="#53504C" transform="translate(216,231)"/>
<path d="M0 0 C0.66 0.33 1.32 0.66 2 1 C1.67 3.31 1.34 5.62 1 8 C-2.95827235 8.05785647 -6.9164367 8.09354717 -10.875 8.125 C-12.00292969 8.14175781 -13.13085938 8.15851563 -14.29296875 8.17578125 C-15.90751953 8.18544922 -15.90751953 8.18544922 -17.5546875 8.1953125 C-19.04718018 8.21102295 -19.04718018 8.21102295 -20.56982422 8.22705078 C-23 8 -23 8 -25 6 C-24.625 3.875 -24.625 3.875 -24 2 C-22.515 2.99 -22.515 2.99 -21 4 C-20.67 3.34 -20.34 2.68 -20 2 C-19.67 2.33 -19.34 2.66 -19 3 C-15.72120651 2.81708265 -12.467075 2.47827839 -9.19921875 2.15625 C-6.44402334 2.02168612 -4.58122761 2.1332174 -2 3 C-1.34 2.01 -0.68 1.02 0 0 Z " fill="#201B18" transform="translate(390,251)"/>
<path d="M0 0 C1.32 0 2.64 0 4 0 C4 1.98 4 3.96 4 6 C5.32 5.67 6.64 5.34 8 5 C8.33 3.35 8.66 1.7 9 0 C9.99 0 10.98 0 12 0 C12 4.95 12 9.9 12 15 C11.01 15 10.02 15 9 15 C9 13.02 9 11.04 9 9 C7.35 9 5.7 9 4 9 C4 10.98 4 12.96 4 15 C2.68 15 1.36 15 0 15 C0 10.05 0 5.1 0 0 Z " fill="#529EC1" transform="translate(302,268)"/>
<path d="M0 0 C1.85625 0.1546875 1.85625 0.1546875 3.75 0.3125 C3.75 1.6325 3.75 2.9525 3.75 4.3125 C2.1 4.3125 0.45 4.3125 -1.25 4.3125 C-1.91 6.6225 -2.57 8.9325 -3.25 11.3125 C-0.94 11.3125 1.37 11.3125 3.75 11.3125 C4.3125 13.25 4.3125 13.25 4.75 15.3125 C3.75 16.3125 3.75 16.3125 0.9375 16.5 C-2.17037874 16.3171836 -3.70997363 16.03608932 -6.25 14.3125 C-8.59168764 10.79996854 -8.74623677 9.44780644 -8.25 5.3125 C-6.10485081 1.20096405 -4.52729219 0.00802711 0 0 Z " fill="#58A0BF" transform="translate(291.25,267.6875)"/>
<path d="M0 0 C2.64 0 5.28 0 8 0 C8 0.99 8 1.98 8 3 C6.68 3.33 5.36 3.66 4 4 C4.845625 4.721875 5.69125 5.44375 6.5625 6.1875 C9 9 9 9 9 11.6875 C8 14 8 14 5 16 C2.3125 16.125 2.3125 16.125 0 16 C-0.33 14.35 -0.66 12.7 -1 11 C1.475 11.495 1.475 11.495 4 12 C4 11.01 4 10.02 4 9 C3.360625 8.855625 2.72125 8.71125 2.0625 8.5625 C0 8 0 8 -1 7 C-0.71269945 4.66055264 -0.38063221 2.3260857 0 0 Z " fill="#64A6C1" transform="translate(449,268)"/>
<path d="M0 0 C8.58 0 17.16 0 26 0 C26 0.33 26 0.66 26 1 C17.75 1 9.5 1 1 1 C1 10.57 1 20.14 1 30 C2.98 30 4.96 30 7 30 C7 30.33 7 30.66 7 31 C22.84 31.495 22.84 31.495 39 32 C39 32.33 39 32.66 39 33 C26.13 33 13.26 33 0 33 C0 22.11 0 11.22 0 0 Z " fill="#9D9D9D" transform="translate(188,229)"/>
<path d="M0 0 C2.97 0 5.94 0 9 0 C9 0.99 9 1.98 9 3 C7.35 3 5.7 3 4 3 C4 3.99 4 4.98 4 6 C5.65 6 7.3 6 9 6 C9 6.99 9 7.98 9 9 C7.35 9 5.7 9 4 9 C4 9.99 4 10.98 4 12 C5.65 12 7.3 12 9 12 C9 12.99 9 13.98 9 15 C6.03 15 3.06 15 0 15 C0 10.05 0 5.1 0 0 Z " fill="#509ABB" transform="translate(432,268)"/>
<path d="M0 0 C1.23556641 0.01740234 1.23556641 0.01740234 2.49609375 0.03515625 C3.32238281 0.04417969 4.14867187 0.05320312 5 0.0625 C5.63808594 0.07410156 6.27617187 0.08570313 6.93359375 0.09765625 C6.93359375 1.08765625 6.93359375 2.07765625 6.93359375 3.09765625 C4.95359375 3.09765625 2.97359375 3.09765625 0.93359375 3.09765625 C0.93359375 4.08765625 0.93359375 5.07765625 0.93359375 6.09765625 C2.91359375 6.09765625 4.89359375 6.09765625 6.93359375 6.09765625 C6.60359375 7.08765625 6.27359375 8.07765625 5.93359375 9.09765625 C4.28359375 9.09765625 2.63359375 9.09765625 0.93359375 9.09765625 C0.93359375 10.08765625 0.93359375 11.07765625 0.93359375 12.09765625 C2.91359375 12.09765625 4.89359375 12.09765625 6.93359375 12.09765625 C6.93359375 13.08765625 6.93359375 14.07765625 6.93359375 15.09765625 C3.96359375 15.09765625 0.99359375 15.09765625 -2.06640625 15.09765625 C-2.26031354 12.7856847 -2.44636992 10.47305335 -2.62890625 8.16015625 C-2.78552734 6.22849609 -2.78552734 6.22849609 -2.9453125 4.2578125 C-2.98527344 3.21496094 -3.02523438 2.17210937 -3.06640625 1.09765625 C-2.06640625 0.09765625 -2.06640625 0.09765625 0 0 Z " fill="#4B97BA" transform="translate(270.06640625,267.90234375)"/>
<path d="M0 0 C8.58 0 17.16 0 26 0 C26.495 1.485 26.495 1.485 27 3 C6.21 3 -14.58 3 -36 3 C-36 2.67 -36 2.34 -36 2 C-24.12 1.67 -12.24 1.34 0 1 C0 0.67 0 0.34 0 0 Z M13 1 C13 1.33 13 1.66 13 2 C15.97 2 18.94 2 22 2 C22 1.67 22 1.34 22 1 C19.03 1 16.06 1 13 1 Z " fill="#AEAEAF" transform="translate(268,259)"/>
<path d="M0 0 C0.33 0 0.66 0 1 0 C1.05816623 3.41659491 1.09365195 6.83306205 1.125 10.25 C1.15013672 11.70212891 1.15013672 11.70212891 1.17578125 13.18359375 C1.18222656 14.11816406 1.18867188 15.05273438 1.1953125 16.015625 C1.20578613 16.87446289 1.21625977 17.73330078 1.22705078 18.61816406 C0.97805883 21.23016993 0.42286333 22.80439562 -1 25 C-6.11494869 27.53357272 -11.3064102 27.2340236 -16.875 27.125 C-17.75414062 27.11597656 -18.63328125 27.10695313 -19.5390625 27.09765625 C-21.6928271 27.07424577 -23.84645014 27.0383801 -26 27 C-26.33 26.34 -26.66 25.68 -27 25 C-19.74 25 -12.48 25 -5 25 C-5 24.34 -5 23.68 -5 23 C-4.34 23 -3.68 23 -3 23 C-3.33 22.01 -3.66 21.02 -4 20 C-3.5155542 19.5877417 -3.0311084 19.1754834 -2.53198242 18.75073242 C-0.70832867 16.66668126 -0.59077411 15.71459137 -0.48828125 12.98828125 C-0.45283203 12.23095703 -0.41738281 11.47363281 -0.38085938 10.69335938 C-0.35830078 9.90767578 -0.33574219 9.12199219 -0.3125 8.3125 C-0.27833984 7.51521484 -0.24417969 6.71792969 -0.20898438 5.89648438 C-0.12661896 3.93148096 -0.06162933 1.96576304 0 0 Z " fill="#575453" transform="translate(457,234)"/>
<path d="M0 0 C3.96 0 7.92 0 12 0 C12 0.99 12 1.98 12 3 C10.68 3 9.36 3 8 3 C8 6.96 8 10.92 8 15 C6.68 15 5.36 15 4 15 C4 11.04 4 7.08 4 3 C2.68 3 1.36 3 0 3 C0 2.01 0 1.02 0 0 Z " fill="#569ABC" transform="translate(249,268)"/>
<path d="M0 0 C3.75376152 1.25125384 4.24073289 2.5652404 6 6 C6 6.66 6 7.32 6 8 C6.66 8 7.32 8 8 8 C11 12.38461538 11 12.38461538 11 15 C8 14 8 14 6 11 C2.91634129 10.7497843 2.91634129 10.7497843 0 11 C-1 8 -1 8 0 5 C-1.65 5.33 -3.3 5.66 -5 6 C-3.35 4.02 -1.7 2.04 0 0 Z " fill="#4293BC" transform="translate(93,171)"/>
<path d="M0 0 C5.75 -0.125 5.75 -0.125 8 1 C8.36923077 8.50769231 8.36923077 8.50769231 6.5 11 C6.005 11.33 5.51 11.66 5 12 C5 9.69 5 7.38 5 5 C4.67 5.33 4.34 5.66 4 6 C3.34 6.66 2.68 7.32 2 8 C-0.60491661 7.8185339 -3.05681623 7.53723614 -5.625 7.125 C-6.33140625 7.02058594 -7.0378125 6.91617188 -7.765625 6.80859375 C-9.51192414 6.54900874 -11.25618599 6.27578567 -13 6 C-13 5.67 -13 5.34 -13 5 C-9.04 5 -5.08 5 -1 5 C-0.67 3.35 -0.34 1.7 0 0 Z " fill="#645E59" transform="translate(386,247)"/>
<path d="M0 0 C1.32 0 2.64 0 4 0 C4 3.96 4 7.92 4 12 C5.98 12 7.96 12 10 12 C10 12.99 10 13.98 10 15 C6.7 15 3.4 15 0 15 C0 10.05 0 5.1 0 0 Z " fill="#68A8C5" transform="translate(363,268)"/>
<path d="M0 0 C2.64 0.33 5.28 0.66 8 1 C3.17514193 3.50542516 -1.87351487 5.21169123 -7 7 C-8.25345215 7.43747559 -8.25345215 7.43747559 -9.53222656 7.88378906 C-12.37243705 8.86965547 -15.21680746 9.84258008 -18.0625 10.8125 C-19.00343506 11.13887451 -19.94437012 11.46524902 -20.91381836 11.80151367 C-21.79948486 12.10033447 -22.68515137 12.39915527 -23.59765625 12.70703125 C-24.39695557 12.9800708 -25.19625488 13.25311035 -26.01977539 13.53442383 C-28 14 -28 14 -30 13 C-27.09399739 11.74335022 -25.20395416 11 -22 11 C-22 10.01 -22 9.02 -22 8 C-21.12988281 7.81824219 -21.12988281 7.81824219 -20.2421875 7.6328125 C-16.65969845 6.86429175 -13.21760895 6.07532618 -9.75 4.875 C-6.99303928 3.99778523 -4.87094768 3.83112072 -2 4 C-2 3.34 -2 2.68 -2 2 C-1.34 2 -0.68 2 0 2 C0 1.34 0 0.68 0 0 Z " fill="#5FA8C8" transform="translate(113,299)"/>
<path d="M0 0 C2 2 2 2 2.1953125 4.1640625 C2.16050781 5.38222656 2.16050781 5.38222656 2.125 6.625 C2.10695313 7.44226563 2.08890625 8.25953125 2.0703125 9.1015625 C2.04710937 9.72804687 2.02390625 10.35453125 2 11 C2.66 10.67 3.32 10.34 4 10 C4.33 10.66 4.66 11.32 5 12 C5.66 11.67 6.32 11.34 7 11 C7.02689216 12.47906892 7.04634621 13.95827483 7.0625 15.4375 C7.07410156 16.26121094 7.08570313 17.08492188 7.09765625 17.93359375 C7 20 7 20 6 21 C3.5625 21.25 3.5625 21.25 1 21 C-1.1165563 17.82516555 -1.22929149 17.33300995 -0.9765625 13.76953125 C-0.925 12.96708984 -0.8734375 12.16464844 -0.8203125 11.33789062 C-0.75585938 10.50451172 -0.69140625 9.67113281 -0.625 8.8125 C-0.56828125 7.96751953 -0.5115625 7.12253906 -0.453125 6.25195312 C-0.31179176 4.16728783 -0.1571675 2.08353134 0 0 Z M4 13 C5 15 5 15 5 15 Z " fill="#373432" transform="translate(311,240)"/>
<path d="M0 0 C0.33 0 0.66 0 1 0 C1.33 1.65 1.66 3.3 2 5 C5.04913228 6.01111093 5.04913228 6.01111093 8 5 C8.72159424 3.35636866 9.39351421 1.68949614 10 0 C10.33 0 10.66 0 11 0 C12.33143786 6.41510967 12.33143786 6.41510967 10.9375 8.875 C8.25856447 10.43051095 6.08496302 10.81112471 3 11 C0.6875 10.3125 0.6875 10.3125 -1 9 C-2.3241298 6.25715971 -2.05395983 5.15828217 -1.0625 2.25 C-0.711875 1.5075 -0.36125 0.765 0 0 Z " fill="#4B9BC0" transform="translate(381,273)"/>
<path d="M0 0 C-0.98828125 1.51953125 -0.98828125 1.51953125 -3 3 C-5.83056579 3.05538697 -8.39069365 2.9635167 -11.1875 2.6875 C-11.93708984 2.62626953 -12.68667969 2.56503906 -13.45898438 2.50195312 C-15.30722745 2.34891389 -17.1538335 2.17633121 -19 2 C-18.67 0.68 -18.34 -0.64 -18 -2 C-15.9399629 -2.25034126 -13.87672534 -2.47443346 -11.8125 -2.6875 C-10.66394531 -2.81511719 -9.51539063 -2.94273437 -8.33203125 -3.07421875 C-4.61521817 -2.99142924 -2.95989896 -2.16836289 0 0 Z " fill="#1E1917" transform="translate(293,256)"/>
<path d="M0 0 C3.63 0 7.26 0 11 0 C11 11.25 11 11.25 10 15 C10 14.01 10 13.02 10 12 C8.02 12 6.04 12 4 12 C4 10.68 4 9.36 4 8 C5.65 8 7.3 8 9 8 C9 7.34 9 6.68 9 6 C7.68 6 6.36 6 5 6 C5 5.34 5 4.68 5 4 C6.65 4 8.3 4 10 4 C10 3.01 10 2.02 10 1 C7.03 1 4.06 1 1 1 C1.33 5.62 1.66 10.24 2 15 C1.34 15 0.68 15 0 15 C0 10.05 0 5.1 0 0 Z " fill="#679BBD" transform="translate(210,268)"/>
<path d="M0 0 C3.875 1.875 3.875 1.875 5 3 C5.14115161 5.67058851 5.04247107 8.32432238 5 11 C2.69 11 0.38 11 -2 11 C-2.28571429 3.57142857 -2.28571429 3.57142857 0 0 Z " fill="#383532" transform="translate(389,230)"/>
<path d="M0 0 C0.99773437 0.02320313 1.99546875 0.04640625 3.0234375 0.0703125 C4.52777344 0.09738281 4.52777344 0.09738281 6.0625 0.125 C6.83335937 0.14820313 7.60421875 0.17140625 8.3984375 0.1953125 C8.3984375 1.8453125 8.3984375 3.4953125 8.3984375 5.1953125 C5.37109375 5.43945312 5.37109375 5.43945312 2.34375 5.68359375 C0.00324534 6.06924286 0.00324534 6.06924286 -1.6015625 9.1953125 C-1.7871875 8.0196875 -1.7871875 8.0196875 -1.9765625 6.8203125 C-2.39274243 4.05473428 -2.39274243 4.05473428 -4.6015625 2.1953125 C-2.6015625 0.1953125 -2.6015625 0.1953125 0 0 Z " fill="#4A89B2" transform="translate(193.6015625,267.8046875)"/>
<path d="M0 0 C0.33 0.66 0.66 1.32 1 2 C0.67 2.66 0.34 3.32 0 4 C-0.66 4 -1.32 4 -2 4 C-2.268125 4.556875 -2.53625 5.11375 -2.8125 5.6875 C-4 8 -4 8 -5.625 10.625 C-7.16701209 12.83109005 -7.16701209 12.83109005 -7 15 C-6.34 15.33 -5.68 15.66 -5 16 C-4.375 18.5625 -4.375 18.5625 -4 21 C-6.9719385 19.87548273 -9.33440687 18.77706209 -12 17 C-12 15.68 -12 14.36 -12 13 C-11.34 13 -10.68 13 -10 13 C-9.773125 12.46375 -9.54625 11.9275 -9.3125 11.375 C-7.54429911 8.17539839 -5.46329797 5.70962777 -3 3 C-2.34 3 -1.68 3 -1 3 C-0.67 2.01 -0.34 1.02 0 0 Z " fill="#4B87B3" transform="translate(19,252)"/>
<path d="M0 0 C1.32 0 2.64 0 4 0 C4 4.95 4 9.9 4 15 C2.68 15 1.36 15 0 15 C0 10.05 0 5.1 0 0 Z " fill="#5C9EC2" transform="translate(420,268)"/>
<path d="M0 0 C0.33 0 0.66 0 1 0 C1.08096803 1.45742463 1.13917774 2.91612807 1.1875 4.375 C1.23970703 5.59316406 1.23970703 5.59316406 1.29296875 6.8359375 C1.19628906 7.55007812 1.09960938 8.26421875 1 9 C-2.10085571 11.06723714 -2.72931681 11.24497423 -6.23046875 11.1953125 C-7.43413086 11.18564453 -7.43413086 11.18564453 -8.66210938 11.17578125 C-9.49548828 11.15902344 -10.32886719 11.14226562 -11.1875 11.125 C-12.03248047 11.11597656 -12.87746094 11.10695312 -13.74804688 11.09765625 C-15.83215243 11.07410703 -17.91611217 11.03823647 -20 11 C-20 14.3 -20 17.6 -20 21 C-20.33 21 -20.66 21 -21 21 C-21 17.37 -21 13.74 -21 10 C-12.585 9.505 -12.585 9.505 -4 9 C-3.34 6.69 -2.68 4.38 -2 2 C-1.34 1.34 -0.68 0.68 0 0 Z " fill="#83817F" transform="translate(216,238)"/>
<path d="M0 0 C1.85625 0.1546875 1.85625 0.1546875 3.75 0.3125 C3.75 1.6325 3.75 2.9525 3.75 4.3125 C2.1 4.3125 0.45 4.3125 -1.25 4.3125 C-1.91 6.2925 -2.57 8.2725 -3.25 10.3125 C-3.58 10.3125 -3.91 10.3125 -4.25 10.3125 C-4.58 8.6625 -4.91 7.0125 -5.25 5.3125 C-5.58 7.6225 -5.91 9.9325 -6.25 12.3125 C-6.91 11.9825 -7.57 11.6525 -8.25 11.3125 C-8.58609819 7.69944442 -8.44511045 5.68646169 -6.75 2.4375 C-4.01112567 0.10945682 -3.41890388 0.00606189 0 0 Z " fill="#7EBED4" transform="translate(291.25,267.6875)"/>
<path d="M0 0 C0.99 0 1.98 0 3 0 C3 2.97 3 5.94 3 9 C4.32 9.33 5.64 9.66 7 10 C7 10.66 7 11.32 7 12 C4.69 12 2.38 12 0 12 C-1.95143115 9.13024831 -1.98930952 7.87385237 -1.6875 4.3125 C-1 1 -1 1 0 0 Z " fill="#4896BE" transform="translate(343,270)"/>
<path d="M0 0 C3.63 0 7.26 0 11 0 C11 0.33 11 0.66 11 1 C17.6 1.33 24.2 1.66 31 2 C31 2.33 31 2.66 31 3 C20.77 3 10.54 3 0 3 C0 2.01 0 1.02 0 0 Z " fill="#606465" transform="translate(188,262)"/>
<path d="M0 0 C0.33 0 0.66 0 1 0 C1 5.28 1 10.56 1 16 C6.61 16 12.22 16 18 16 C15.58816221 18.41183779 14.57556395 18.40736614 11.25 18.75 C9.98929687 18.89695313 9.98929687 18.89695313 8.703125 19.046875 C6 19 6 19 0 17 C0 11.39 0 5.78 0 0 Z " fill="#605E5E" transform="translate(272,236)"/>
<path d="M0 0 C1.32 0 2.64 0 4 0 C4 0.99 4 1.98 4 3 C5.32 2.34 6.64 1.68 8 1 C7.6875 3.375 7.6875 3.375 7 6 C3.77208445 8.1519437 2.71599191 8.20086443 -1 8 C-1.33 6.35 -1.66 4.7 -2 3 C0.475 3.495 0.475 3.495 3 4 C3 3.01 3 2.02 3 1 C2.01 0.67 1.02 0.34 0 0 Z " fill="#54A1C3" transform="translate(450,276)"/>
<path d="M0 0 C1.22589844 0.01353516 1.22589844 0.01353516 2.4765625 0.02734375 C3.41628906 0.04474609 3.41628906 0.04474609 4.375 0.0625 C4.375 1.0525 4.375 2.0425 4.375 3.0625 C3.09625 3.02125 1.8175 2.98 0.5 2.9375 C-1.64371492 2.82037127 -1.64371492 2.82037127 -3.625 3.0625 C-5.86866663 4.87332504 -5.86866663 4.87332504 -5.8125 7.4375 C-5.64508693 9.78128304 -5.29056367 11.81622262 -4.625 14.0625 C-5.285 14.0625 -5.945 14.0625 -6.625 14.0625 C-9.07347349 9.02152516 -8.34347703 6.2179311 -6.625 1.0625 C-4.21954362 -0.14022819 -2.67503047 -0.03821472 0 0 Z " fill="#4784AC" transform="translate(235.625,267.9375)"/>
<path d="M0 0 C0.66 0 1.32 0 2 0 C2 0.66 2 1.32 2 2 C3.32 2.33 4.64 2.66 6 3 C6.33 2.34 6.66 1.68 7 1 C7 1.66 7 2.32 7 3 C7.99 2.67 8.98 2.34 10 2 C10.33 1.34 10.66 0.68 11 0 C11.99 0.66 12.98 1.32 14 2 C13.67 3.32 13.34 4.64 13 6 C5.25 6.125 5.25 6.125 3 5 C3 4.34 3 3.68 3 3 C2.34 3 1.68 3 1 3 C0.67 2.01 0.34 1.02 0 0 Z " fill="#575354" transform="translate(244,255)"/>
<path d="M0 0 C0.66 0.99 1.32 1.98 2 3 C1.01 3 0.02 3 -1 3 C-1.1546875 4.670625 -1.1546875 4.670625 -1.3125 6.375 C-1.539375 7.57125 -1.76625 8.7675 -2 10 C-2.99 10.66 -3.98 11.32 -5 12 C-5 11.34 -5 10.68 -5 10 C-5.66 10 -6.32 10 -7 10 C-7 10.99 -7 11.98 -7 13 C-8.32 12.67 -9.64 12.34 -11 12 C-10.06409496 10.8944811 -9.12620142 9.79064547 -8.1875 8.6875 C-7.66542969 8.07261719 -7.14335938 7.45773438 -6.60546875 6.82421875 C-3.6626898 3.48047722 -3.6626898 3.48047722 -2 2 C-1.34 2 -0.68 2 0 2 C0 1.34 0 0.68 0 0 Z " fill="#4382B0" transform="translate(87,177)"/>
<path d="M0 0 C7.75 0.75 7.75 0.75 10 3 C10.1953125 5.1640625 10.1953125 5.1640625 10.125 7.625 C10.10695313 8.44226563 10.08890625 9.25953125 10.0703125 10.1015625 C10.03550781 11.04128906 10.03550781 11.04128906 10 12 C9.67 12 9.34 12 9 12 C8.71125 10.865625 8.4225 9.73125 8.125 8.5625 C7.75375 7.386875 7.3825 6.21125 7 5 C4.04335481 3.5216774 1.25770263 3.93967217 -2 4 C-1.34 2.68 -0.68 1.36 0 0 Z " fill="#3374A2" transform="translate(469,219)"/>
<path d="M0 0 C1.134375 0.020625 2.26875 0.04125 3.4375 0.0625 C0.07410335 2.30476443 -3.32590552 3.48842747 -7.125 4.75 C-8.15270508 5.10674805 -8.15270508 5.10674805 -9.20117188 5.47070312 C-10.96902572 6.06230093 -12.76484149 6.5688209 -14.5625 7.0625 C-15.2225 6.7325 -15.8825 6.4025 -16.5625 6.0625 C-15.2425 5.7325 -13.9225 5.4025 -12.5625 5.0625 C-12.8925 4.0725 -13.2225 3.0825 -13.5625 2.0625 C-10.62406148 0.59328074 -7.80852179 1.0625 -4.5625 1.0625 C-3.5625 0.0625 -3.5625 0.0625 0 0 Z " fill="#53A1C6" transform="translate(143.5625,290.9375)"/>
<path d="M0 0 C0.99 0 1.98 0 3 0 C3.125 2.375 3.125 2.375 3 5 C2.34 5.66 1.68 6.32 1 7 C3.64 7 6.28 7 9 7 C9 7.33 9 7.66 9 8 C7.02 8 5.04 8 3 8 C3 9.98 3 11.96 3 14 C2.01 14 1.02 14 0 14 C0 9.38 0 4.76 0 0 Z " fill="#3589AF" transform="translate(302,268)"/>
<path d="M0 0 C4.95 0 9.9 0 15 0 C14.67 0.99 14.34 1.98 14 3 C9.05 3 4.1 3 -1 3 C-0.67 2.01 -0.34 1.02 0 0 Z " fill="#575B5C" transform="translate(336,262)"/>
<path d="M0 0 C2.59783875 2.5082581 5.03692381 4.9572319 7 8 C7 8.99 7 9.98 7 11 C7.66 11 8.32 11 9 11 C9.99 12.98 10.98 14.96 12 17 C11.34 17 10.68 17 10 17 C10 16.34 10 15.68 10 15 C9.01 14.67 8.02 14.34 7 14 C2 8.76744186 2 8.76744186 2 4 C1.34 4 0.68 4 0 4 C0 2.68 0 1.36 0 0 Z " fill="#56A2C2" transform="translate(137,233)"/>
<path d="M0 0 C3.62528568 -0.20140476 5.86501708 0.14223235 9 2 C9 2.99 9 3.98 9 5 C9.66 5 10.32 5 11 5 C11 5.99 11 6.98 11 8 C11.66 8 12.32 8 13 8 C12.67 8.66 12.34 9.32 12 10 C10.18386638 8.71344735 8.37219046 7.42060005 6.5625 6.125 C5.55316406 5.40570313 4.54382813 4.68640625 3.50390625 3.9453125 C1 2 1 2 0 0 Z " fill="#4E8BB2" transform="translate(26,281)"/>
<path d="M0 0 C0.66 0 1.32 0 2 0 C2.12375 0.804375 2.2475 1.60875 2.375 2.4375 C2.58125 3.283125 2.7875 4.12875 3 5 C3.66 5.33 4.32 5.66 5 6 C4.6875 7.875 4.6875 7.875 4 10 C0.1496895 12.56687367 -1.58569763 11.83288724 -6 11 C-6 10.67 -6 10.34 -6 10 C-4.35 10 -2.7 10 -1 10 C-1 9.01 -1 8.02 -1 7 C-0.34 7 0.32 7 1 7 C0.67 4.69 0.34 2.38 0 0 Z " fill="#62A4C3" transform="translate(351,272)"/>
<path d="M0 0 C-1.32 0.33 -2.64 0.66 -4 1 C-4 4.63 -4 8.26 -4 12 C-4.99 11.67 -5.98 11.34 -7 11 C-8.33517241 3.59586207 -8.33517241 3.59586207 -6.875 1 C-4.46618158 -0.28470316 -2.69027121 -0.2181301 0 0 Z " fill="#0E5D93" transform="translate(237,270)"/>
<path d="M0 0 C1.2065625 0.0309375 1.2065625 0.0309375 2.4375 0.0625 C2.1075 2.3725 1.7775 4.6825 1.4375 7.0625 C0.7775 7.0625 0.1175 7.0625 -0.5625 7.0625 C-0.8925 7.7225 -1.2225 8.3825 -1.5625 9.0625 C-2.2225 9.0625 -2.8825 9.0625 -3.5625 9.0625 C-3.66015625 2.91015625 -3.66015625 2.91015625 -3.5625 1.0625 C-2.5625 0.0625 -2.5625 0.0625 0 0 Z " fill="#1566A1" transform="translate(471.5625,222.9375)"/>
<path d="M0 0 C0.33 0 0.66 0 1 0 C1 8.25 1 16.5 1 25 C-0.65 25 -2.3 25 -4 25 C-4.33 24.01 -4.66 23.02 -5 22 C-3.68 21.34 -2.36 20.68 -1 20 C-0.67 13.4 -0.34 6.8 0 0 Z " fill="#201D1A" transform="translate(351,236)"/>
<path d="M0 0 C1.32 0.33 2.64 0.66 4 1 C4.625 4.375 4.625 4.375 5 8 C4.34 8.66 3.68 9.32 3 10 C2.01 9.67 1.02 9.34 0 9 C0 6.03 0 3.06 0 0 Z " fill="#0F5D94" transform="translate(188,271)"/>
<path d="M0 0 C1.32 0 2.64 0 4 0 C4 0.66 4 1.32 4 2 C8.40914783 3.10228696 12.48382401 3.07654536 17 3 C16.0409375 3.4640625 16.0409375 3.4640625 15.0625 3.9375 C13.06389179 4.8345163 13.06389179 4.8345163 12 6 C7.96839809 6.26293056 6.44107266 6.29404844 3 4 C3 3.34 3 2.68 3 2 C2.01 1.67 1.02 1.34 0 1 C0 0.67 0 0.34 0 0 Z " fill="#5F9EBE" transform="translate(66,310)"/>
<path d="M0 0 C7.18456726 1.76225235 7.18456726 1.76225235 10 5 C10.99 5.33 11.98 5.66 13 6 C14.1875 8.5625 14.1875 8.5625 15 11 C13 10 11 9 9 8 C9 7.34 9 6.68 9 6 C8.443125 5.938125 7.88625 5.87625 7.3125 5.8125 C4.05012827 4.66626128 2.31332126 2.50609803 0 0 Z " fill="#5D92B7" transform="translate(45,295)"/>
<path d="M0 0 C0.66 0 1.32 0 2 0 C2 0.99 2 1.98 2 3 C4.31 3 6.62 3 9 3 C9 3.99 9 4.98 9 6 C6.03 6 3.06 6 0 6 C0 4.02 0 2.04 0 0 Z " fill="#3186AC" transform="translate(268,277)"/>
<path d="M0 0 C1.32 0.99 2.64 1.98 4 3 C3.67 3.99 3.34 4.98 3 6 C1.0390625 6.94921875 1.0390625 6.94921875 -1.375 7.6875 C-2.16648438 7.93886719 -2.95796875 8.19023437 -3.7734375 8.44921875 C-6 9 -6 9 -9 9 C-9 8.34 -9 7.68 -9 7 C-7.35 7 -5.7 7 -4 7 C-4 6.34 -4 5.68 -4 5 C-2.35 4.34 -0.7 3.68 1 3 C0.67 2.01 0.34 1.02 0 0 Z " fill="#78B6D0" transform="translate(168,278)"/>
<path d="M0 0 C0.66 0 1.32 0 2 0 C2.66 1.98 3.32 3.96 4 6 C2.35 6 0.7 6 -1 6 C-1 6.99 -1 7.98 -1 9 C-3.475 8.01 -3.475 8.01 -6 7 C-5.195625 6.401875 -4.39125 5.80375 -3.5625 5.1875 C-0.77672016 3.19052724 -0.77672016 3.19052724 0 0 Z " fill="#4C8BB6" transform="translate(195,274)"/>
<path d="M0 0 C1.65 0 3.3 0 5 0 C5.66 1.65 6.32 3.3 7 5 C5.02 4.01 3.04 3.02 1 2 C1.33 6.29 1.66 10.58 2 15 C1.34 15 0.68 15 0 15 C0 10.05 0 5.1 0 0 Z " fill="#67A9C8" transform="translate(322,268)"/>
<path d="M0 0 C1.8125 1.5625 1.8125 1.5625 3 3 C-0.32534757 4.10844919 -2.62182575 3.84454356 -6 3 C-6.33 2.01 -6.66 1.02 -7 0 C-4.26634878 -1.36682561 -2.89333621 -0.84683011 0 0 Z " fill="#1C1A17" transform="translate(252,254)"/>
<path d="M0 0 C1.32 0 2.64 0 4 0 C4 0.66 4 1.32 4 2 C3.01 2 2.02 2 1 2 C1 3.98 1 5.96 1 8 C1.99 8.33 2.98 8.66 4 9 C3.01 9.495 3.01 9.495 2 10 C2 10.66 2 11.32 2 12 C2.99 12.33 3.98 12.66 5 13 C2.69 12.67 0.38 12.34 -2 12 C-1.34 11.67 -0.68 11.34 0 11 C0 7.37 0 3.74 0 0 Z " fill="#69A7CC" transform="translate(233,271)"/>
<path d="M0 0 C0.66 0.33 1.32 0.66 2 1 C-0.10714286 6.99725275 -0.10714286 6.99725275 -3 9 C-4.32 8.67 -5.64 8.34 -7 8 C-4.69 5.36 -2.38 2.72 0 0 Z " fill="#3E83AF" transform="translate(48,220)"/>
<path d="M0 0 C1.23556641 0.01740234 1.23556641 0.01740234 2.49609375 0.03515625 C3.32238281 0.04417969 4.14867187 0.05320313 5 0.0625 C5.63808594 0.07410156 6.27617187 0.08570313 6.93359375 0.09765625 C4.71425211 3.42666872 3.58676046 3.84788869 -0.06640625 5.09765625 C-1.05640625 3.77765625 -2.04640625 2.45765625 -3.06640625 1.09765625 C-2.06640625 0.09765625 -2.06640625 0.09765625 0 0 Z " fill="#1E1917" transform="translate(238.06640625,243.90234375)"/>
<path d="M0 0 C0.33 0.99 0.66 1.98 1 3 C-1.75924185 4.80411967 -2.88972103 5.0127245 -6.25 4.625 C-7.1575 4.41875 -8.065 4.2125 -9 4 C-8.67 3.01 -8.34 2.02 -8 1 C-5.36 0.67 -2.72 0.34 0 0 Z " fill="#4781A7" transform="translate(476,232)"/>
<path d="M0 0 C1.125 1.5625 1.125 1.5625 2 4 C1.25 7.6875 1.25 7.6875 0 11 C-0.99 11.495 -0.99 11.495 -2 12 C-2.33 11.34 -2.66 10.68 -3 10 C-3.99 9.67 -4.98 9.34 -6 9 C-5.34 9 -4.68 9 -4 9 C-4 8.34 -4 7.68 -4 7 C-3.34 7 -2.68 7 -2 7 C-1.855625 6.401875 -1.71125 5.80375 -1.5625 5.1875 C-1.1127561 3.43849596 -0.57107659 1.71322977 0 0 Z " fill="#669BBF" transform="translate(479,223)"/>
<path d="M0 0 C2 1 2 1 4 4 C3.625 6.6875 3.625 6.6875 3 9 C2.34 7.68 1.68 6.36 1 5 C0.67 6.32 0.34 7.64 0 9 C-0.66 9 -1.32 9 -2 9 C-1.125 2.25 -1.125 2.25 0 0 Z " fill="#7FBBD0" transform="translate(380,269)"/>
<path d="M0 0 C1.37478516 0.01740234 1.37478516 0.01740234 2.77734375 0.03515625 C3.69644531 0.04417969 4.61554688 0.05320312 5.5625 0.0625 C6.27277344 0.07410156 6.98304688 0.08570313 7.71484375 0.09765625 C7.71484375 1.41765625 7.71484375 2.73765625 7.71484375 4.09765625 C3.6587821 3.62964914 0.24895696 3.21812417 -3.28515625 1.09765625 C-2.28515625 0.09765625 -2.28515625 0.09765625 0 0 Z " fill="#69A9C4" transform="translate(405.28515625,267.90234375)"/>
<path d="M0 0 C1.051875 0.01160156 1.051875 0.01160156 2.125 0.0234375 C2.82625 0.01570313 3.5275 0.00796875 4.25 0 C6.125 0.3984375 6.125 0.3984375 8.125 3.3984375 C4.165 3.3984375 0.205 3.3984375 -3.875 3.3984375 C-1.875 0.3984375 -1.875 0.3984375 0 0 Z " fill="#515B59" transform="translate(313.875,261.6015625)"/>
<path d="M0 0 C0.33 0 0.66 0 1 0 C1 3.63 1 7.26 1 11 C-0.98 11 -2.96 11 -5 11 C-5.33 10.01 -5.66 9.02 -6 8 C-4.02 8 -2.04 8 0 8 C0 5.36 0 2.72 0 0 Z " fill="#40413F" transform="translate(411,250)"/>
<path d="M0 0 C0.66 0 1.32 0 2 0 C2 0.66 2 1.32 2 2 C3.98 2 5.96 2 8 2 C8 2.99 8 3.98 8 5 C5.69 5 3.38 5 1 5 C0.67 3.35 0.34 1.7 0 0 Z " fill="#2884A9" transform="translate(433,278)"/>
<path d="M0 0 C2.31 0.33 4.62 0.66 7 1 C7.33 2.32 7.66 3.64 8 5 C7.01 5.33 6.02 5.66 5 6 C5 5.01 5 4.02 5 3 C3.68 3 2.36 3 1 3 C0.67 2.01 0.34 1.02 0 0 Z " fill="#3D93BA" transform="translate(449,273)"/>
<path d="M0 0 C2.5 1.1875 2.5 1.1875 5 3 C5.3125 5.6875 5.3125 5.6875 5 8 C4.34 8 3.68 8 3 8 C2.67 7.01 2.34 6.02 2 5 C1.34 5.99 0.68 6.98 0 8 C-1.125 2.25 -1.125 2.25 0 0 Z " fill="#80B7D1" transform="translate(389,270)"/>
<path d="M0 0 C0.99 0.495 0.99 0.495 2 1 C1.67 1.66 1.34 2.32 1 3 C1.61875 2.814375 2.2375 2.62875 2.875 2.4375 C5 2 5 2 7 3 C7.625 5.5625 7.625 5.5625 8 8 C5.0280615 6.87548273 2.66559313 5.77706209 0 4 C0 2.68 0 1.36 0 0 Z " fill="#568FB5" transform="translate(7,265)"/>
<path d="M0 0 C0.66 0.33 1.32 0.66 2 1 C1.67 1.99 1.34 2.98 1 4 C-0.32 4 -1.64 4 -3 4 C-3 4.99 -3 5.98 -3 7 C-4.32 7 -5.64 7 -7 7 C-5.55609075 3.19333016 -3.65047197 1.73397418 0 0 Z " fill="#2A8DBC" transform="translate(162,281)"/>
<path d="M0 0 C2.64 0.33 5.28 0.66 8 1 C8 1.99 8 2.98 8 4 C5.03 3.67 2.06 3.34 -1 3 C-0.67 2.01 -0.34 1.02 0 0 Z " fill="#2E83AA" transform="translate(365,279)"/>
<path d="M0 0 C-0.99 1.485 -0.99 1.485 -2 3 C-2.66 3 -3.32 3 -4 3 C-4 4.32 -4 5.64 -4 7 C-4.66 7 -5.32 7 -6 7 C-6 4.69 -6 2.38 -6 0 C-3 -1 -3 -1 0 0 Z " fill="#398DB4" transform="translate(407,270)"/>
<path d="M0 0 C1 2 1 2 0.25 4.5 C-1 7 -1 7 -4 9 C-4.99 9 -5.98 9 -7 9 C-7 7 -7 7 -5.125 4.875 C-3 3 -3 3 -1 3 C-0.67 2.01 -0.34 1.02 0 0 Z " fill="#498ABA" transform="translate(29,241)"/>
<path d="M0 0 C0.99 0.33 1.98 0.66 3 1 C2.125 4.875 2.125 4.875 1 6 C-0.66617115 6.04063832 -2.33388095 6.042721 -4 6 C-3.67 5.01 -3.34 4.02 -3 3 C-2.34 3 -1.68 3 -1 3 C-0.67 2.01 -0.34 1.02 0 0 Z " fill="#434140" transform="translate(252,243)"/>
<path d="M0 0 C0 2.97 0 5.94 0 9 C-0.33 9 -0.66 9 -1 9 C-1 6.36 -1 3.72 -1 1 C-1.99 1 -2.98 1 -4 1 C-4 1.66 -4 2.32 -4 3 C-4.99 3 -5.98 3 -7 3 C-7 2.01 -7 1.02 -7 0 C-4.3333581 -1.33332095 -2.83319697 -0.67102033 0 0 Z " fill="#6EB3CC" transform="translate(413,274)"/>
<path d="M0 0 C0.99 0 1.98 0 3 0 C3 2.64 3 5.28 3 8 C2.01 8 1.02 8 0 8 C0 5.36 0 2.72 0 0 Z " fill="#085E99" transform="translate(239,272)"/>
<path d="M0 0 C0.94875 0.04125 1.8975 0.0825 2.875 0.125 C2.875 1.445 2.875 2.765 2.875 4.125 C0 4.25 0 4.25 -3.125 4.125 C-3.785 3.465 -4.445 2.805 -5.125 2.125 C-3.125 0.125 -3.125 0.125 0 0 Z " fill="#5298B7" transform="translate(292.125,267.875)"/>
<path d="M0 0 C3.91402949 1.26941497 5.79072873 2.51167694 8 6 C5.03 5.67 2.06 5.34 -1 5 C-0.67 3.35 -0.34 1.7 0 0 Z " fill="#45403D" transform="translate(246,249)"/>
<path d="M0 0 C-1 2 -2 4 -3 6 C-4.65 6 -6.3 6 -8 6 C-3.375 0 -3.375 0 0 0 Z " fill="#266FA1" transform="translate(79,190)"/>
<path d="M0 0 C0.33 0.66 0.66 1.32 1 2 C1.99 2 2.98 2 4 2 C4 2.66 4 3.32 4 4 C1.69 4.33 -0.62 4.66 -3 5 C-3.33 4.01 -3.66 3.02 -4 2 C-2.68 1.34 -1.36 0.68 0 0 Z " fill="#2E74A6" transform="translate(238,278)"/>
<path d="M0 0 C1.62463842 -0.05395478 3.24978541 -0.09277195 4.875 -0.125 C5.77992188 -0.14820313 6.68484375 -0.17140625 7.6171875 -0.1953125 C10 0 10 0 12 2 C8.37 2.33 4.74 2.66 1 3 C0.67 2.01 0.34 1.02 0 0 Z " fill="#65676A" transform="translate(366,262)"/>
<path d="M0 0 C0.33 0 0.66 0 1 0 C1 2.97 1 5.94 1 9 C0.01 9 -0.98 9 -2 9 C-2.33 9.99 -2.66 10.98 -3 12 C-3.6875 10.1875 -3.6875 10.1875 -4 8 C-3.02246356 6.97803008 -2.0194119 5.98020375 -1 5 C-0.27802838 2.39388923 -0.27802838 2.39388923 0 0 Z " fill="#6EB7D3" transform="translate(331,268)"/>
<path d="M0 0 C2.31 0.66 4.62 1.32 7 2 C7 2.66 7 3.32 7 4 C7.66 4.33 8.32 4.66 9 5 C9 5.66 9 6.32 9 7 C8.34 7 7.68 7 7 7 C7 6.34 7 5.68 7 5 C6.21625 4.731875 5.4325 4.46375 4.625 4.1875 C2 3 2 3 0 0 Z " fill="#4A86B3" transform="translate(15,273)"/>
<path d="M0 0 C0.33 0 0.66 0 1 0 C1 1.98 1 3.96 1 6 C-1.25 7.125 -1.25 7.125 -4 8 C-6.3125 7.125 -6.3125 7.125 -8 6 C-7.05125 5.7525 -6.1025 5.505 -5.125 5.25 C-1.91306809 4.3142923 -1.91306809 4.3142923 -0.625 1.875 C-0.41875 1.25625 -0.2125 0.6375 0 0 Z " fill="#363531" transform="translate(298,252)"/>
<path d="M0 0 C3 1.5 3 1.5 6 3 C4.35 3.33 2.7 3.66 1 4 C1 5.98 1 7.96 1 10 C0.67 10 0.34 10 0 10 C0 8.02 0 6.04 0 4 C-0.66 4 -1.32 4 -2 4 C-1.34 2.68 -0.68 1.36 0 0 Z " fill="#74B1D2" transform="translate(466,220)"/>
<path d="M0 0 C-1.32 0.33 -2.64 0.66 -4 1 C-4 1.99 -4 2.98 -4 4 C-4.66 4 -5.32 4 -6 4 C-6.66 5.32 -7.32 6.64 -8 8 C-8.36075949 3.55063291 -8.36075949 3.55063291 -6.8125 1.1875 C-4.44017475 -0.36678206 -2.77958655 -0.22537188 0 0 Z " fill="#035F9E" transform="translate(237,270)"/>
<path d="M0 0 C1.98 0 3.96 0 6 0 C6 0.99 6 1.98 6 3 C3.69 3 1.38 3 -1 3 C-0.67 2.01 -0.34 1.02 0 0 Z " fill="#6A6E76" transform="translate(452,262)"/>
<path d="M0 0 C3.08089673 2.77280706 4.68775452 5.06326356 6 9 C3.5625 7.875 3.5625 7.875 1 6 C0.1875 2.8125 0.1875 2.8125 0 0 Z " fill="#7AB3CF" transform="translate(131,224)"/>
<path d="M0 0 C1.9375 0.8125 1.9375 0.8125 4 2 C4.33 2.99 4.66 3.98 5 5 C4.401875 4.835 3.80375 4.67 3.1875 4.5 C0.88655664 3.8885876 0.88655664 3.8885876 -2 4 C-1.34 2.68 -0.68 1.36 0 0 Z " fill="#3F3C3B" transform="translate(389,230)"/>
<path d="M0 0 C2.375 -0.1875 2.375 -0.1875 5 0 C5.66 0.99 6.32 1.98 7 3 C6.34 3.66 5.68 4.32 5 5 C3.35 3.35 1.7 1.7 0 0 Z " fill="#3B86B3" transform="translate(26,281)"/>
<path d="M0 0 C1.485 0.99 1.485 0.99 3 2 C3.1875 4.625 3.1875 4.625 3 7 C2.34 7 1.68 7 1 7 C0.67 7.66 0.34 8.32 0 9 C0 6.03 0 3.06 0 0 Z " fill="#2975A8" transform="translate(188,271)"/>
<path d="M0 0 C0.99 0 1.98 0 3 0 C3 1.65 3 3.3 3 5 C1.68 5 0.36 5 -1 5 C-0.67 3.35 -0.34 1.7 0 0 Z " fill="#57A2BB" transform="translate(354,273)"/>
<path d="M0 0 C0.99 0 1.98 0 3 0 C3 1.98 3 3.96 3 6 C2.01 6.495 2.01 6.495 1 7 C0.67 4.69 0.34 2.38 0 0 Z " fill="#2D6895" transform="translate(463,224)"/>
<path d="M0 0 C1.32 0.33 2.64 0.66 4 1 C3.67 1.66 3.34 2.32 3 3 C3.99 3.66 4.98 4.32 6 5 C4.35 5 2.7 5 1 5 C0.67 3.35 0.34 1.7 0 0 Z " fill="#8FC0D4" transform="translate(448,279)"/>
<path d="M0 0 C0.66 0 1.32 0 2 0 C2.185625 1.2065625 2.185625 1.2065625 2.375 2.4375 C2.58125 3.283125 2.7875 4.12875 3 5 C3.66 5.33 4.32 5.66 5 6 C4.67 7.32 4.34 8.64 4 10 C3.34 9.67 2.68 9.34 2 9 C2.33 8.34 2.66 7.68 3 7 C2.34 7 1.68 7 1 7 C0.67 4.69 0.34 2.38 0 0 Z " fill="#85C6E1" transform="translate(351,272)"/>
<path d="M0 0 C0.33 0 0.66 0 1 0 C1.66 3.3 2.32 6.6 3 10 C2.34 10 1.68 10 1 10 C-0.83691257 6.21812119 -1.15837626 4.05431692 0 0 Z " fill="#6FA4C3" transform="translate(228,272)"/>
<path d="M0 0 C0.66 0 1.32 0 2 0 C3.125 4.75 3.125 4.75 2 7 C1.34 7 0.68 7 0 7 C0 4.69 0 2.38 0 0 Z " fill="#219CB9" transform="translate(332,268)"/>
<path d="M0 0 C0.66 0 1.32 0 2 0 C1.49396008 2.16874252 1.00016187 3.99967627 0 6 C-1.32 5.67 -2.64 5.34 -4 5 C-2.71937515 3.2925002 -1.38232443 1.62626404 0 0 Z " fill="#518DB8" transform="translate(54,213)"/>
</svg>
